<?xml version="1.0" encoding="utf-8"?>
<!-- Generator: Adobe Illustrator 19.2.1, SVG Export Plug-In . SVG Version: 6.00 Build 0)  -->
<svg version="1.1" id="Capa_1" xmlns="http://www.w3.org/2000/svg" xmlns:xlink="http://www.w3.org/1999/xlink" x="0px" y="0px"
	 viewBox="0 0 750 500" style="enable-background:new 0 0 750 500;" xml:space="preserve">
<style type="text/css">
	.st0{fill:#EBEBEB;}
	.st1{fill:#E0E0E0;}
	.st2{fill:#F5F5F5;}
	.st3{display:none;}
	.st4{display:inline;fill:#E0E0E0;}
	.st5{fill:#263238;}
	.st6{fill:#455A64;}
	.st7{fill:#FAFAFA;}
	.st8{fill:#0D6EFD;}
	.st9{fill:#E8505B;}
	.st10{opacity:0.5;}
	.st11{fill:#FC3F26;}
	.st12{opacity:0.4;}
	.st13{fill:#FFFFFF;}
	.st14{fill:none;stroke:#4E585D;stroke-width:5.000000e-002;stroke-miterlimit:10;}
	.st15{opacity:0.2;}
	.st16{fill:#B78876;}
	.st17{fill:#AA6550;}
	.st18{opacity:0.3;}
</style>
<g id="Background_Complete">
	<g>
		<g>
			<g>
				<path class="st0" d="M686.5,178.7c2.5,2.6,3.6,6.4,3.5,10c-0.2,3.6-1.5,7.1-3.2,10.3c-3.4,6.2-9.8,11.2-15.9,14.8
					c-3.5-7-1.3-15.8,0-20.2C673.1,186.6,681.2,175.3,686.5,178.7"/>
			</g>
		</g>
		<g>
			<g>
				<path class="st0" d="M672.8,227.1c0.6-4,3.8-7.4,7.6-8.8c3.8-1.3,8.2-0.8,11.8,1c1.7,0.8,3.3,2.1,3.8,4c0.4,1.7-0.5,3.5-1.8,4.7
					c-1.3,1.1-3.1,1.7-4.8,2C683.4,231,677.5,230.9,672.8,227.1"/>
			</g>
		</g>
		<g>
			<g>
				<g>
					<path class="st1" d="M657.6,244.1c0,0,0.2-0.5,0.7-1.2c0.6-0.9,1.3-2,2.1-3.3c1.8-2.8,4.4-6.7,8.4-10c4-3.2,8.5-5,11.9-5.4
						c1.7-0.2,3-0.2,4-0.1c0.5,0,0.8,0.1,1.1,0.2c0.2,0,0.4,0.1,0.4,0.1c0,0.1-2.1-0.3-5.4,0.2c-3.3,0.5-7.6,2.3-11.6,5.4
						c-4,3.2-6.5,7.1-8.5,9.8c-0.9,1.4-1.7,2.5-2.3,3.2C658,243.7,657.7,244.1,657.6,244.1z"/>
				</g>
			</g>
		</g>
		<g>
			<g>
				<g>
					<path class="st1" d="M681,187.8c0,0,0,0.2-0.2,0.6c-0.2,0.4-0.3,1-0.6,1.7c-0.5,1.5-1.3,3.6-2.3,6.2c-2,5.3-4.8,12.5-8.1,20.4
						s-6.4,15-8.8,20.1c-1.2,2.6-2.1,4.6-2.8,6c-0.3,0.7-0.6,1.2-0.8,1.6c-0.2,0.4-0.3,0.6-0.3,0.6s0.1-0.2,0.2-0.6
						c0.2-0.4,0.4-1,0.7-1.7c0.7-1.5,1.6-3.6,2.7-6.1c2.3-5.1,5.3-12.3,8.6-20.2s6.2-15.1,8.2-20.3c1-2.6,1.8-4.7,2.4-6.2
						c0.3-0.7,0.5-1.2,0.7-1.7C680.9,188,681,187.8,681,187.8z"/>
				</g>
			</g>
		</g>
		<g>
			<g>
				<path class="st0" d="M661.7,227.2c2-8.3-0.4-17.6-6.1-24c-1.5-1.6-3.6-3.2-5.7-2.4c-2.1,0.7-2.7,3.3-2.8,5.5
					c-0.2,9.1,5.8,18,14.2,21.4"/>
			</g>
		</g>
		<g>
			<g>
				<g>
					<path class="st1" d="M653.9,209.7c0,0,0.4,0.3,1,1c0.3,0.3,0.7,0.7,1,1.2c0.4,0.5,0.8,1.1,1.2,1.7c0.4,0.7,0.9,1.4,1.3,2.2
						c0.5,0.8,0.9,1.7,1.3,2.7c0.8,1.9,1.4,4.1,1.8,6.5c0.3,2.4,0.4,4.7,0.2,6.8c-0.1,1-0.2,2-0.5,2.9c-0.2,0.9-0.4,1.7-0.6,2.5
						c-0.2,0.8-0.5,1.4-0.7,2s-0.5,1.1-0.7,1.5c-0.4,0.8-0.6,1.2-0.7,1.2c-0.1,0,0.8-1.8,1.7-4.8c0.2-0.8,0.4-1.6,0.6-2.5
						c0.2-0.9,0.3-1.9,0.4-2.9c0.2-2,0.1-4.3-0.2-6.7c-0.4-2.3-1-4.5-1.8-6.4c-0.4-0.9-0.8-1.9-1.2-2.7s-0.8-1.5-1.2-2.2
						C655.2,211.2,653.9,209.8,653.9,209.7z"/>
				</g>
			</g>
		</g>
	</g>
	<g>
		<g>
			<g>
				<path class="st0" d="M65.1,116.3c0,0-9.2,3-0.3,22.7s15.3,29.6,15.3,29.6s1.5,4.6-2.3,5.1s-12-1.2-13.9,3.3
					c-2,4.7,1.3,9.4,8.1,13.7c6.9,4.3,21.5,14.2,22.8,15.1c1.3,0.9,2.5,3,0,3.8s-21.3,1.8-20.2,10.7c1,8.9,22.1,17.7,24.4,18.7
					s2.8,2,2.5,3.3c-0.2,1.3-6.6,1-11.9,1.6c-5.3,0.5-11.4,2.1-10.4,7.1c1,5.1,13.2,16.2,43.9,20.6l14.3,1.1l8.4-11.8
					c16.4-26.3,15.8-42.8,12.6-46.8c-3.2-4.1-8.3-0.4-12.1,3.3s-7.8,8.7-8.9,8.1c-1.1-0.6-1.6-1.7-0.9-4.1
					c0.7-2.4,7.6-24.1,1.5-30.7c-6.1-6.5-19,7.1-21.2,8.5s-3.1-0.9-2.9-2.5s2.1-19.2,3.2-27.2c1.2-8-0.3-13.5-5.1-15
					c-4.7-1.5-8.7,5.9-11.5,8.5c-2.9,2.6-5.3-1.6-5.3-1.6s-3.4-11.2-12.7-30.8s-17.7-14.3-17.7-14.3"/>
			</g>
		</g>
		<g>
			<g>
				<g>
					<path class="st1" d="M138.1,276.1c-6.8-14.4-18.3-40.2-28.4-62.3s-19.2-42.1-25.9-56.5c-3.3-7.2-6.1-13-7.9-17.1
						c-0.9-2-1.7-3.6-2.2-4.6c-0.2-0.5-0.4-0.9-0.6-1.2c-0.1-0.3-0.2-0.4-0.2-0.4s0.1,0.1,0.2,0.4c0.1,0.3,0.3,0.7,0.6,1.2
						c0.5,1.1,1.3,2.6,2.2,4.6c1.9,4,4.7,9.8,8.1,17c6.8,14.4,15.9,34.4,26,56.4c10.1,22.1,21.6,47.9,28.3,62.3"/>
				</g>
			</g>
		</g>
		<g>
			<g>
				<g>
					<path class="st1" d="M75.3,179.9c0,0,0.4,0.1,1,0.3s1.5,0.6,2.6,1.1c2.2,0.9,5.2,2.3,8.5,3.8c3.2,1.5,6.2,3,8.4,4
						c1,0.5,1.9,0.9,2.6,1.2c0.6,0.3,0.9,0.5,0.9,0.5s-0.4-0.1-1-0.3s-1.5-0.6-2.6-1.1c-2.2-0.9-5.2-2.3-8.5-3.9
						c-3.3-1.5-6.2-2.9-8.4-4c-1-0.5-1.9-0.9-2.6-1.2C75.6,180.1,75.3,179.9,75.3,179.9z"/>
				</g>
			</g>
		</g>
		<g>
			<g>
				<g>
					
						<ellipse transform="matrix(0.3846 -0.9231 0.9231 0.3846 -97.02 206.2829)" class="st1" cx="106.2" cy="175.9" rx="15.2" ry="0.2"/>
				</g>
			</g>
		</g>
		<g>
			<g>
				<g>
					<path class="st1" d="M114.3,224.6c0,0,0.2-0.3,0.6-0.9c0.5-0.6,1.1-1.4,1.8-2.2c1.5-1.9,3.6-4.5,5.8-7.5c2.2-3,4.1-5.8,5.5-7.8
						c0.6-0.9,1.2-1.7,1.6-2.4c0.4-0.6,0.6-0.9,0.6-0.8c0,0-0.1,0.4-0.5,0.9c-0.3,0.6-0.9,1.4-1.5,2.5c-1.3,2.1-3.2,4.9-5.4,7.9
						c-2.2,3-4.4,5.6-5.9,7.5c-0.8,0.9-1.5,1.7-1.9,2.2C114.6,224.3,114.3,224.6,114.3,224.6z"/>
				</g>
			</g>
		</g>
		<g>
			<g>
				<g>
					<path class="st1" d="M89.6,220.4c0,0,0.4,0,1,0.1c0.7,0.1,1.6,0.2,2.6,0.3c2.2,0.3,5.3,0.8,8.7,1.3c3.4,0.5,6.5,1,8.7,1.4
						c1,0.2,1.9,0.3,2.6,0.5c0.6,0.1,1,0.2,1,0.2s-0.4,0-1-0.1c-0.7-0.1-1.6-0.2-2.6-0.3c-2.2-0.3-5.3-0.8-8.7-1.3
						c-3.4-0.5-6.5-1-8.7-1.4c-1-0.2-1.9-0.3-2.6-0.5C89.9,220.5,89.6,220.5,89.6,220.4z"/>
				</g>
			</g>
		</g>
		<g>
			<g>
				<g>
					<path class="st1" d="M98,252.5c0,0,0.5,0,1.3,0.1c0.9,0.1,2,0.2,3.4,0.4c2.9,0.4,6.8,0.9,11.2,1.5c4.4,0.6,8.3,1.2,11.2,1.7
						c1.4,0.2,2.5,0.4,3.4,0.6c0.8,0.1,1.2,0.2,1.2,0.3c0,0-0.5,0-1.3-0.1c-0.9-0.1-2-0.2-3.4-0.4c-2.9-0.4-6.8-0.9-11.2-1.5
						c-4.4-0.6-8.3-1.2-11.2-1.7c-1.4-0.2-2.5-0.4-3.4-0.6C98.4,252.7,98,252.6,98,252.5z"/>
				</g>
			</g>
		</g>
		<g>
			<g>
				<g>
					<path class="st1" d="M128.9,256.8c0,0,0.2-0.4,0.8-1.1c0.6-0.8,1.3-1.7,2.2-2.9c1.8-2.5,4.4-5.9,7.1-9.8
						c2.7-3.9,5.1-7.4,6.7-10c0.8-1.2,1.5-2.3,2-3.1c0.5-0.7,0.8-1.1,0.8-1.1s-0.2,0.4-0.6,1.2c-0.4,0.8-1.1,1.8-1.9,3.1
						c-1.6,2.6-3.9,6.2-6.6,10.1c-2.7,3.9-5.3,7.3-7.2,9.7c-1,1.2-1.7,2.2-2.3,2.8C129.2,256.4,128.9,256.8,128.9,256.8z"/>
				</g>
			</g>
		</g>
	</g>
	<g>
		<g>
			<g>
				<g>
					<g>
						<path class="st2" d="M362.5,234.6c-25.6-12.9-35.3-42.3-38.3-69.6c-0.5-4.5-1.7-9.3-0.1-13.5c1.6-4.3,6.2-7.7,10.5-6.4
							c3.6,1.1,5.6,4.8,8,7.8c3.1,3.9,7.4,7,12.1,8.6c3.1,1.1,6.8,1.5,9.4-0.5c3.6-2.7,3.3-8.2,2.6-12.7c-1.3-8.4-2.5-16.8-3.8-25.2
							c-0.7-4.5-1.4-9.1-0.6-13.6s3.3-8.9,7.4-10.7c4.1-1.8,9.8-0.1,11.3,4.2c0.6,1.8,0.5,3.7,0.9,5.6s1.6,3.8,3.4,4.1
							c1.9,0.3,3.5-1.3,4.6-2.8c4-5.2,6.3-11.5,8.4-17.8c2.1-6.3,4.1-12.6,7.6-18.2s8.8-10.3,15.2-11.6c6.4-1.3,13.8,1.7,16.4,7.8
							c2.6,6.1-0.2,13.1-3.5,18.8c-4.9,8.5-11,16.3-18,23c-1.3,1.2-2.7,2.5-3,4.3c-0.5,3.1,2.7,5.7,5.8,6.3
							c3.5,0.6,7.1-0.2,10.7-0.3c3.6-0.1,7.6,0.9,9.4,4c2.5,4.3-0.6,9.7-4,13.4c-6.7,7.4-14.6,13.7-23.4,18.4
							c-3.1,1.7-6.5,3.3-8.8,6s-3.4,7-1.3,9.9s6.4,3.4,9.7,2.2c3.4-1.1,6.2-3.5,9.3-5.2c5.9-3.2,13.9-4,18.6,0.8
							c3.1,3.1,4.1,8,3.3,12.4c-0.7,4.4-2.9,8.4-5.2,12.1c-8.2,13.1-19.6,24.3-33.2,31.3C390.6,234.5,377.5,237.8,362.5,234.6"/>
					</g>
				</g>
			</g>
		</g>
		<g>
			<g>
				<g>
					<g>
						<g>
							<path class="st1" d="M367,216.6c2-14.3,5.5-29.7,9.7-45.8c1.1-4,2.1-8,3.2-11.9c1-3.9,2.1-7.8,3.3-11.5
								c2.5-7.4,5.4-14.4,8.4-20.9c3-6.5,6.1-12.6,9-18.3s5.8-10.9,8.6-15.5c5.5-9.3,10.9-16.3,14.8-21c1.9-2.3,3.5-4.1,4.6-5.3
								c0.5-0.6,0.9-1,1.2-1.3c0.3-0.3,0.4-0.4,0.4-0.4s-0.1,0.2-0.4,0.5s-0.7,0.8-1.2,1.4c-1,1.2-2.5,3-4.4,5.4
								c-3.8,4.7-9.1,11.7-14.5,21.1c-2.7,4.7-5.5,9.9-8.4,15.6s-5.9,11.8-8.9,18.3c-3,6.5-5.9,13.5-8.3,20.9
								c-1.2,3.7-2.3,7.5-3.3,11.4s-2.1,7.9-3.2,11.9c-4.2,16-7.7,31.4-9.8,45.7"/>
						</g>
					</g>
				</g>
			</g>
		</g>
		<g>
			<g>
				<g>
					<g>
						<g>
							<path class="st1" d="M383.5,147.5c-0.1,0-0.3-0.6-0.7-1.9c-0.4-1.2-1-3-1.6-5.2c-1.3-4.4-2.9-10.5-4.6-17.3
								s-3.4-12.8-4.7-17.2c-0.7-2.2-1.2-3.9-1.6-5.2c-0.4-1.2-0.6-1.9-0.5-1.9s0.3,0.6,0.8,1.8c0.5,1.2,1.1,2.9,1.9,5.1
								c1.5,4.3,3.2,10.4,5,17.2c1.7,6.7,3.2,12.7,4.3,17.3c0.5,2.1,1,3.8,1.3,5.2C383.4,146.8,383.5,147.5,383.5,147.5z"/>
						</g>
					</g>
				</g>
			</g>
		</g>
		<g>
			<g>
				<g>
					<g>
						<g>
							<path class="st1" d="M439.8,128.3c0,0.1-0.8,0.3-2.3,0.6s-3.6,0.8-6.2,1.5c-5.2,1.3-12.4,3.4-20.1,6.1
								c-7.8,2.7-14.7,5.4-19.7,7.5c-2.5,1-4.5,1.9-5.9,2.5s-2.2,0.9-2.2,0.9c0-0.1,0.7-0.5,2-1.2s3.3-1.7,5.8-2.8
								c4.9-2.3,11.8-5.1,19.6-7.8c7.8-2.7,15-4.7,20.3-5.9c2.6-0.6,4.8-1,6.3-1.3C439,128.3,439.8,128.2,439.8,128.3z"/>
						</g>
					</g>
				</g>
			</g>
		</g>
		<g>
			<g>
				<g>
					<g>
						<g>
							<path class="st1" d="M367.6,215.5c0,0-0.2-0.2-0.5-0.6c-0.3-0.5-0.8-1.2-1.3-2c-1.1-1.7-2.7-4.2-4.5-7.3
								c-3.8-6.2-8.7-15-14-24.7c-5.3-9.8-10.1-18.6-13.7-24.9c-1.8-3.1-3.2-5.6-4.3-7.4c-0.5-0.8-0.8-1.5-1.2-2
								c-0.3-0.5-0.4-0.7-0.4-0.7s0.2,0.2,0.5,0.7s0.8,1.2,1.3,1.9c1.1,1.7,2.7,4.2,4.5,7.3c3.8,6.2,8.7,15,14,24.7
								s10.1,18.5,13.7,24.8c1.8,3.1,3.2,5.6,4.3,7.4c0.5,0.8,0.8,1.5,1.2,2C367.5,215.2,367.6,215.4,367.6,215.5z"/>
						</g>
					</g>
				</g>
			</g>
		</g>
		<g>
			<g>
				<g>
					<g>
						<g>
							<path class="st1" d="M440.9,179.5c0,0-0.2,0.2-0.7,0.4c-0.6,0.3-1.3,0.6-2.1,1.1c-2,1-4.6,2.3-7.9,3.9
								c-6.6,3.3-15.7,7.9-25.8,13c-10.1,5.1-19.2,9.6-25.9,12.8c-3.3,1.6-6.1,2.8-8,3.6c-0.9,0.4-1.6,0.7-2.2,0.9
								c-0.5,0.2-0.8,0.3-0.8,0.3s0.2-0.2,0.7-0.4c0.6-0.3,1.3-0.6,2.1-1.1c2-1,4.6-2.3,7.9-3.9c6.6-3.3,15.7-7.9,25.8-13
								c10.1-5.1,19.2-9.6,25.9-12.8c3.3-1.6,6.1-2.8,8-3.6c0.9-0.4,1.6-0.7,2.2-0.9C440.6,179.6,440.9,179.5,440.9,179.5z"/>
						</g>
					</g>
				</g>
			</g>
		</g>
	</g>
	<g>
		<path class="st2" d="M568.2,111.6c0-16.3-17.1-26.7-34.6-18.5c-3.9,1.8-7.2,5-9.2,8.8c-4.4,8.5-2.5,18.2,1.5,26.3l13.6,34.5
			c2,5,9,4.9,10.9,0l13.3-34.7C568.4,117.5,568.2,111.6,568.2,111.6z M551.8,125.8c-11.7,6.8-23.7-5.8-17.2-18.3
			c0.9-1.7,2.2-3,3.7-4c11.8-6.8,23.7,5.8,17.2,18.3C554.7,123.5,553.4,124.9,551.8,125.8z"/>
	</g>
</g>
<g id="Background_Simple" class="st3">
	<path class="st4" d="M636.4,230.3c11.5-43,0.9-91.3-27.5-125.6s-74-53.6-118.4-50.2c-44.4,3.4-86.5,29.4-109.4,67.6
		c-7.7,12.9-13.6,27.3-24.6,37.6c-14.9,13.8-36.7,17.5-57,17s-40.6-4.4-60.9-3.1c-36,2.3-70.8,22.4-89.3,53.4s-19.3,72.1-0.6,103
		c15.3,25.3,42,42.3,70.2,51.3s58.2,10.8,87.8,11.6c65.6,1.7,132.7-1.7,193.9-25.5c61.1-23.8,116-71,135.3-133.7"/>
	<path class="st4" d="M112.2,51.9c9-17,27-28.7,47.7-26.5c8.8-0.5,24.8,5.3,35,16.8s14.4,28.4,10.4,43.3
		c-5,18.6-15.8,31.9-34.5,36.7c-18.6,4.9-39.9-1.5-52.3-16.2S103.2,68.9,112.2,51.9z"/>
</g>
<g id="Floor">
	<g>
		<g>
			<path class="st5" d="M710,444.1c0,0.1-150,0.3-334.9,0.3c-185,0-335-0.1-335-0.3s149.9-0.3,335-0.3
				C560,443.8,710,443.9,710,444.1z"/>
		</g>
	</g>
</g>
<g id="Device">
	<g>
		<g>
			<g>
				<g>
					<g>
						<g>
							<g>
								<path class="st6" d="M324.2,444.1l-132.9-0.6c-16-0.1-28.9-13.1-28.8-29.1l1.4-333.2c0.1-16,13.1-28.9,29.1-28.8L325.9,53
									c16,0.1,28.9,13.1,28.8,29.1l-1.4,333.2C353.2,431.2,340.2,444.2,324.2,444.1z"/>
							</g>
						</g>
						<g>
							<g>
								<path class="st7" d="M325.6,64.4l-25.8-0.1c-3.5,0-6.3,2.9-6.3,6.5v4.7c0,3.6-2.8,6.5-6.3,6.5L237,81.8
									c-3.5,0-6.2-3-6.2-6.6v-4.7c0-3.6-2.8-6.6-6.2-6.6h-9.1L193,63.8c-11.2-0.1-20.3,9-20.4,20.2l-1.4,325.3
									c0,11.2,9,20.3,20.2,20.4l132.7,0.6c11.2,0.1,20.3-9,20.4-20.2l1.4-325.3C345.9,73.6,336.8,64.5,325.6,64.4z"/>
							</g>
						</g>
					</g>
				</g>
			</g>
		</g>
		<g>
			<polygon class="st0" points="172.5,123.1 194.2,123.1 213.6,142.5 193.4,162.6 172.7,141.9 			"/>
		</g>
		<g>
			<polygon class="st0" points="218,133.9 207.1,123.1 231.6,123.1 			"/>
		</g>
		<g>
			<path class="st0" d="M227.6,142.8l19.1-19.1h66.7c0,0,10.2,45.6-30,74.9L227.6,142.8z"/>
		</g>
		<g>
			<polygon class="st0" points="219.4,148.9 199,169.4 255.5,225.9 275.9,204.8 			"/>
		</g>
		<g>
			<polygon class="st0" points="172.2,180.9 185,167.6 172.5,155.1 			"/>
		</g>
		<g>
			<polygon class="st0" points="192.7,175.5 173,195.1 173,222.5 213.6,264 248,232 			"/>
		</g>
		<g>
			<path class="st0" d="M291,204.4c0,0,42.1-30.9,28.5-80.6h26.2l-0.3,140.4L291,204.4z"/>
		</g>
		<g>
			<polygon class="st0" points="283.1,212.5 262.7,233.7 325.2,296.2 344.3,275.9 			"/>
		</g>
		<g>
			<polygon class="st0" points="254.2,239.5 222.2,271.3 286.2,334.9 318.2,304 			"/>
		</g>
		<g>
			<polygon class="st0" points="237.4,398.8 286.4,348 332.9,395.5 			"/>
		</g>
		<g>
			<path class="st0" d="M294,341.5l51-50.5c0,2.2-0.4,104.7-0.4,104.7L294,341.5z"/>
		</g>
		<g>
			<polygon class="st0" points="250.4,313.1 279.3,342 222.2,401 195.8,369.3 			"/>
		</g>
		<g>
			<path class="st0" d="M172.3,373.4c2.7-0.3,72.6-65.7,72.6-65.7l-72.6-75.3L172.3,373.4L172.3,373.4z"/>
		</g>
		<g>
			<polyline class="st0" points="171.2,388.3 188.1,373.4 211.4,401 171.2,401 171.2,390.4 			"/>
		</g>
		<g>
			<g>
				<g>
					<path class="st5" d="M193,103.2c-0.1,0.1-2.3-1.8-5-4.3l0,0c0-0.8,0-0.2,0-0.4l0,0l0,0l0,0l0,0l0.1-0.1l0.1-0.1l0.2-0.2
						c0.2-0.2,0.3-0.3,0.5-0.4c0.3-0.3,0.6-0.6,0.9-0.8c0.5-0.5,1.1-1,1.6-1.4c0.9-0.8,1.5-1.2,1.5-1.2c0,0.1-0.4,0.6-1.3,1.5
						c-0.5,0.5-1,1-1.5,1.5c-0.3,0.3-0.6,0.6-0.9,0.9c-0.2,0.1-0.3,0.3-0.5,0.5l-0.2,0.2l-0.1,0.1l-0.1,0.1l0,0l0,0l0,0l0,0
						c0-0.2,0,0.4,0-0.4l0,0C191.1,101,193.1,103.1,193,103.2z"/>
				</g>
			</g>
			<g>
				<g>
					<circle class="st5" cx="330.2" cy="95.6" r="1.1"/>
				</g>
				<g>
					
						<ellipse transform="matrix(0.7071 -0.7071 0.7071 0.7071 26.5218 262.56)" class="st5" cx="330.2" cy="99.3" rx="1.1" ry="1.1"/>
				</g>
				<g>
					<circle class="st5" cx="330.2" cy="103.1" r="1.1"/>
				</g>
			</g>
		</g>
		<g>
			<rect x="237.6" y="100" class="st5" width="46.8" height="3.9"/>
		</g>
		<g>
			<path class="st8" d="M279.3,170c0-18.2-19.1-29.8-38.7-20.6c-4.4,2.1-8.1,5.6-10.3,9.8c-4.9,9.5-2.7,20.4,1.7,29.4l15.2,38.5
				c2.2,5.5,10.1,5.5,12.2-0.1l14.9-38.7C279.5,176.6,279.3,170,279.3,170z M261,185.9c-13.1,7.6-26.4-6.5-19.2-20.4
				c1-1.9,2.4-3.4,4.2-4.4c13.1-7.6,26.4,6.5,19.2,20.4C264.2,183.3,262.7,184.9,261,185.9z"/>
		</g>
	</g>
</g>
<g id="Car">
	<g>
		<g>
			<g>
				<g>
					<g>
						<rect x="122.3" y="309.1" class="st9" width="554.8" height="81.4"/>
					</g>
				</g>
				<g class="st10">
					<g>
						<rect x="122.3" y="309.1" width="554.8" height="81.4"/>
					</g>
				</g>
			</g>
			<g>
				<g>
					<g>
						<g>
							<g>
								<g>
									<g>
										
											<ellipse transform="matrix(1.442264e-002 -0.9999 0.9999 1.442264e-002 -195.9679 581.1946)" class="st5" cx="196.8" cy="390" rx="53.5" ry="53.5"/>
									</g>
								</g>
							</g>
						</g>
					</g>
				</g>
				<g>
					<g>
						<g>
							<g>
								<g>
									<g>
										<path class="st5" d="M143.3,389.1v0.1c-0.4,29.5,23.2,53.8,52.7,54.3c29.5,0.4,53.8-23.2,54.3-52.7v-0.1L143.3,389.1z"/>
									</g>
								</g>
							</g>
						</g>
					</g>
				</g>
				<g>
					<g>
						<g>
							<g>
								<g>
									<g>
										
											<ellipse transform="matrix(1.442229e-002 -0.9999 0.9999 1.442229e-002 -195.9682 581.1947)" class="st7" cx="196.8" cy="390" rx="37.6" ry="37.6"/>
									</g>
								</g>
							</g>
						</g>
					</g>
				</g>
				<g>
					<g>
						<g>
							<g>
								<g>
									<g>
										<path class="st1" d="M197.3,352.4c-20.7-0.3-37.8,16.3-38.1,37l75.1,1.1C234.7,369.8,218.1,352.7,197.3,352.4z"/>
									</g>
								</g>
							</g>
						</g>
					</g>
				</g>
				<g>
					<g>
						<g>
							<g>
								<g>
									<g>
										
											<ellipse transform="matrix(1.442319e-002 -0.9999 0.9999 1.442319e-002 -195.9681 581.1946)" class="st5" cx="196.8" cy="390" rx="22.9" ry="22.9"/>
									</g>
								</g>
							</g>
						</g>
					</g>
				</g>
			</g>
			<g>
				<g>
					<g>
						<g>
							<g>
								<g>
									<g>
										
											<ellipse transform="matrix(1.442264e-002 -0.9999 0.9999 1.442264e-002 207.2348 990.2524)" class="st5" cx="605.9" cy="390" rx="53.5" ry="53.5"/>
									</g>
								</g>
							</g>
						</g>
					</g>
				</g>
				<g>
					<g>
						<g>
							<g>
								<g>
									<g>
										<path class="st5" d="M552.4,389.1v0.1c-0.4,29.5,23.2,53.8,52.7,54.3c29.5,0.4,53.8-23.2,54.3-52.7v-0.1L552.4,389.1z"/>
									</g>
								</g>
							</g>
						</g>
					</g>
				</g>
				<g>
					<g>
						<g>
							<g>
								<g>
									<g>
										
											<ellipse transform="matrix(1.442229e-002 -0.9999 0.9999 1.442229e-002 207.2346 990.2526)" class="st7" cx="605.9" cy="390" rx="37.6" ry="37.6"/>
									</g>
								</g>
							</g>
						</g>
					</g>
				</g>
				<g>
					<g>
						<g>
							<g>
								<g>
									<g>
										<path class="st1" d="M606.4,352.4c-20.7-0.3-37.8,16.3-38.1,37l75.1,1.1C643.8,369.8,627.2,352.7,606.4,352.4z"/>
									</g>
								</g>
							</g>
						</g>
					</g>
				</g>
				<g>
					<g>
						<g>
							<g>
								<g>
									<g>
										
											<ellipse transform="matrix(1.442319e-002 -0.9999 0.9999 1.442319e-002 207.2341 990.2524)" class="st5" cx="605.9" cy="390" rx="22.9" ry="22.9"/>
									</g>
								</g>
							</g>
						</g>
					</g>
				</g>
			</g>
			<g>
				<g>
					<path class="st11" d="M266.9,263.3c0,0-78.8,5.8-108,12.4c-20.6,4.6-60.3,12.6-59.8,37.5l3.1,17.9c0,0-14.7,6.7-14.7,23.9
						c0,17.2-3.6,43.8,30.8,44.8c5.7,0.2,16.4,0,16.4,0s-6.6-73.2,60.6-75.3c68.4-2.2,63.8,74.6,63.8,74.6h285.4
						c0,0-11.7-74.8,61.9-75c73.6-0.1,62.4,75.4,62.4,75.4s27.1,2.3,39.7-20.4c12.6-22.8,9.3-39,9.3-39l-0.4-14.4
						c-0.1-4.9-4.1-8.8-9-9l0,0c0,0,4.9-36.2-2.6-42.5s-48.9-44.1-48.9-44.1l2-1.2c3.3-2.1,2.7-7-1-8.3
						c-15.7-5.4-46.8-16.1-54.1-18.6c-1.1-0.4-2.2-0.6-3.4-0.7c-4.4-0.3-16.7-1.1-39.3-1.4c-27.6-0.3-137.1,0-137.1,0
						s-37.7,3.1-58.7,12.3C343.4,222.1,266.9,263.3,266.9,263.3z"/>
				</g>
			</g>
			<g class="st12">
				<g>
					<g>
						<path d="M107.6,353c-2.9-0.6-7.2-0.6-9.4,1.3c-1.6,1.4-2,3.8-2.3,5.9c-0.3,3-0.5,6,0.2,8.9s2.4,5.7,5,7.1s6.2,1.2,8.2-1
							c1.9-2,2.1-5,2-7.7c-0.1-3.9,0.2-7.1-0.5-10.9c-0.1-0.7-0.5-1.6-1-2.2C109.1,353.5,108.5,353.1,107.6,353"/>
					</g>
				</g>
			</g>
			<g>
				<g>
					<path class="st7" d="M102.3,331.1c8.4,0,16.5-0.5,24.8-1c0.9-0.1,1.9-0.2,2.5-0.8c0.8-0.7,0.9-2,0.9-3c0-4.5-0.2-9.6-3.6-12.5
						c-2.1-1.8-4.9-2.3-7.7-2.6c-6.7-0.6-13.8-0.1-20.1,2L102.3,331.1z"/>
				</g>
			</g>
			<g>
				<g>
					<g>
						<path class="st13" d="M276,396.9c0,0,0-0.2-0.1-0.7c0-0.5-0.1-1.2-0.1-2.1c-0.1-1.9-0.3-4.6-0.4-8.1
							c-0.2-3.5-0.4-7.8-0.9-12.7c-0.5-4.9-1.3-10.6-2.9-16.6c-1.7-6-4.2-12.5-8.1-18.8c-3.8-6.3-8.8-12.5-15.6-17.4
							c-13.5-9.6-31.7-15-50.8-15.3c-19.1-0.2-37.3,5.8-50.4,15.9c-6.6,4.9-12.1,10.7-16.4,16.7c-4.3,6-7.4,12.2-9.6,18
							c-2.2,5.9-3.4,11.4-4,16.4c-0.7,4.9-0.6,9.2-0.5,12.7c0.3,3.5,0.6,6.2,1,8c0.2,0.9,0.3,1.6,0.4,2.1s0.1,0.7,0.1,0.7
							s-0.1-0.2-0.2-0.7s-0.2-1.2-0.4-2.1c-0.4-1.8-0.8-4.5-1.1-8c-0.2-3.5-0.3-7.8,0.4-12.8c0.6-4.9,1.8-10.6,4-16.5
							s5.3-12.1,9.6-18.2c4.2-6.1,9.8-11.9,16.4-16.8c13.2-10.2,31.5-16.2,50.7-16s37.5,5.7,51.1,15.4c6.8,4.9,11.8,11.2,15.7,17.5
							c3.8,6.4,6.4,12.8,8,18.9c1.7,6.1,2.4,11.7,2.9,16.7s0.7,9.3,0.8,12.8c0.1,3.5,0.3,6.2,0.3,8.1c0,0.9,0.1,1.6,0.1,2.1
							C276,396.6,276,396.9,276,396.9z"/>
					</g>
				</g>
			</g>
			<g>
				<g>
					<g>
						<path class="st5" d="M279,398.1c0,0,0-0.2,0-0.6s0-1-0.1-1.8c0-1.6-0.1-3.9-0.2-6.9c-0.2-6.1-0.4-14.9-0.7-26.2
							c-0.3-11.3-0.7-25-1.1-40.7c-0.1-3.9-0.2-8-0.3-12.2c-0.1-2.1,0.1-4.2,0.3-6.4c0.2-1.1,0.3-2.1,0.5-3.2s0.4-2.1,0.7-3.2
							c1-4.3,2.5-8.6,4.5-12.8c2-4.2,4.3-8.3,7.3-12.2l0,0l0,0c15.3-9.6,31.9-20.1,49.4-31.1c4.4-2.8,8.8-5.6,13.3-8.4
							c4.4-3,9.2-5.6,14.1-7.9c4.9-2.3,10.1-4.4,15.3-6.1c2.6-0.9,5.3-1.7,8-2.5c2.7-0.7,5.4-1.5,8.2-2c10.6-2.4,21.4-3.5,31.9-4
							s20.8-0.5,30.8,0.1h0.3l-0.1,0.3c-4.7,21.2-9.2,41.1-13.3,59.4l0,0l0,0c-2.5,4.1-4.5,8.4-6,12.8c-1.4,4.4-2.3,8.8-2,13.2
							c0.3,4.4,0.5,8.7,0.6,12.9c0.1,4.2,0.2,8.2,0.2,12.1c0.2,15.7,0.3,29.4,0.3,40.7c0,11.3,0,20.1,0,26.2c0,3,0,5.3,0,6.9
							c0,0.8,0,1.4,0,1.8s0,0.6,0,0.6s0-0.2,0-0.6s0-1,0-1.8c0-1.6,0-3.9,0-6.9c0-6.1-0.1-14.9-0.2-26.2c-0.1-11.3-0.2-25-0.4-40.7
							c-0.1-3.9-0.2-8-0.3-12.1c-0.1-4.2-0.2-8.4-0.6-12.8c-0.3-4.4,0.6-9,2-13.4c1.5-4.4,3.5-8.7,6-12.9v0.1
							c4.1-18.3,8.5-38.3,13.2-59.4l0.2,0.3c-10-0.6-20.3-0.6-30.8-0.1s-21.2,1.7-31.8,4c-2.8,0.6-5.5,1.3-8.2,2
							c-2.7,0.8-5.4,1.6-8,2.5c-5.3,1.8-10.4,3.8-15.3,6.1s-9.7,4.9-14.1,7.8c-4.5,2.8-9,5.6-13.4,8.4
							c-17.6,11.1-34.2,21.5-49.5,31.1h0.1c-3,3.8-5.3,7.9-7.3,12.1s-3.4,8.5-4.4,12.7c-2.2,8.6-1.1,17-1.1,24.9
							c0.4,15.7,0.7,29.4,1,40.7c0.3,11.3,0.5,20.2,0.6,26.2c0.1,3,0.1,5.3,0.1,6.9c0,0.8,0,1.4,0,1.8
							C279,397.9,279,398.1,279,398.1z"/>
					</g>
				</g>
			</g>
			<g>
				<g>
					<g>
						<path class="st5" d="M460.5,211.6c0,0,0.2,0,0.5,0s0.8,0,1.4,0c1.2,0,3-0.1,5.3-0.1c4.6-0.1,11.3-0.2,19.7-0.4
							c16.7-0.3,40-0.7,66.4-1.1h0.1l0.1,0.1c3,3.6,6.1,7.5,9.3,11.4c9.4,11.6,18.4,22.6,26.6,32.6c1,1.3,2,2.5,3,3.7s1.8,2.6,2.5,4
							c1.3,2.8,2,5.8,2,8.7c0,2.9-0.6,5.7-1.6,8.2c-1.1,2.4-2.1,4.8-3,7c-3.9,9-7,16.2-9.2,21.2c-1.1,2.5-1.9,4.4-2.5,5.8
							c-0.3,0.6-0.5,1.1-0.7,1.5c-0.2,0.3-0.2,0.5-0.2,0.5s0.1-0.2,0.2-0.5c0.1-0.4,0.4-0.9,0.6-1.5c0.6-1.3,1.4-3.3,2.4-5.8
							c2.1-5,5.2-12.3,9-21.3c1.7-4.5,4.8-9.3,4.5-15.1c0-2.8-0.7-5.8-2-8.5c-0.7-1.4-1.5-2.7-2.4-3.9c-1-1.2-2-2.5-3-3.7
							c-8.2-10-17.2-21-26.6-32.5c-3.2-3.9-6.3-7.7-9.3-11.4l0.2,0.1c-26.4,0.4-49.7,0.7-66.4,1c-8.3,0.1-15,0.2-19.7,0.2
							c-2.3,0-4.1,0-5.3,0c-0.6,0-1,0-1.4,0C460.7,211.7,460.5,211.6,460.5,211.6z"/>
					</g>
				</g>
			</g>
			<g>
				<g>
					<g>
						<path class="st5" d="M427,299.9c0,0,0.3,0,0.8-0.1s1.3-0.3,2.1-0.8c0.8-0.5,1.7-1.5,2.1-2.8c0.2-0.7,0.3-1.4,0.3-2.2
							c0-0.8-0.2-1.6-0.6-2.4c-0.8-1.5-2.5-2.8-4.6-2.8s-4.4,0-6.7,0c-4.8,0-10,0-15.5,0c-1.3,0-2.6,0.5-3.5,1.4s-1.5,2-1.7,3.3
							c-0.1,1.3,0,2.5,0.6,3.5s1.5,1.8,2.6,2.3s2.2,0.4,3.3,0.4c1.1,0,2.2,0,3.3,0c2.1,0,4.1,0,5.9,0c3.6,0,6.4,0.1,8.5,0.1
							c1,0,1.7,0,2.3,0C426.8,299.9,427,299.9,427,299.9s-0.3,0-0.8,0.1c-0.6,0-1.3,0-2.3,0c-2.1,0-5,0-8.5,0.1c-1.8,0-3.8,0-5.9,0
							c-1.1,0-2.1,0-3.3,0c-0.6,0-1.1,0-1.7,0s-1.2-0.2-1.8-0.4c-1.1-0.5-2.2-1.3-2.8-2.5c-0.7-1.1-0.8-2.5-0.7-3.8
							c0.1-1.3,0.8-2.7,1.8-3.6s2.4-1.5,3.9-1.5c5.5,0,10.7,0,15.5,0c2.4,0,4.6,0,6.7,0c2.2,0,4.1,1.4,4.9,3.1
							c0.4,0.8,0.6,1.7,0.6,2.5s-0.1,1.6-0.3,2.3c-0.5,1.4-1.4,2.3-2.3,2.9c-0.9,0.5-1.7,0.7-2.2,0.8C427.3,300,427,299.9,427,299.9
							z"/>
					</g>
				</g>
			</g>
			<g>
				<g>
					<g>
						<path class="st5" d="M575,299.9c0,0,0.3,0,0.8-0.1s1.3-0.3,2.1-0.8s1.7-1.5,2.1-2.8c0.2-0.7,0.3-1.4,0.3-2.2
							c0-0.8-0.2-1.6-0.6-2.4c-0.8-1.5-2.5-2.8-4.6-2.8s-4.4,0-6.7,0c-4.8,0-10,0-15.5,0c-1.3,0-2.6,0.5-3.5,1.4s-1.5,2-1.7,3.3
							c-0.1,1.3,0,2.5,0.6,3.5s1.5,1.8,2.6,2.3s2.2,0.4,3.3,0.4s2.2,0,3.3,0c2.1,0,4.1,0,5.9,0c3.6,0,6.4,0.1,8.5,0.1
							c1,0,1.7,0,2.3,0C574.7,299.9,575,299.9,575,299.9s-0.3,0-0.8,0.1c-0.6,0-1.3,0-2.3,0c-2.1,0-5,0-8.5,0.1c-1.8,0-3.8,0-5.9,0
							c-1.1,0-2.1,0-3.3,0c-0.6,0-1.1,0-1.7,0c-0.6,0-1.2-0.2-1.8-0.4c-1.1-0.5-2.2-1.3-2.8-2.5c-0.7-1.1-0.8-2.5-0.7-3.8
							s0.8-2.7,1.8-3.6s2.4-1.5,3.9-1.5c5.5,0,10.7,0,15.5,0c2.4,0,4.6,0,6.7,0c2.2,0,4.1,1.4,4.9,3.1c0.4,0.8,0.6,1.7,0.6,2.5
							s-0.1,1.6-0.3,2.3c-0.5,1.4-1.4,2.3-2.3,2.9c-0.9,0.5-1.7,0.7-2.2,0.8C575.2,300,575,299.9,575,299.9z"/>
					</g>
				</g>
			</g>
			<g>
				<g>
					<path class="st7" d="M704.7,275.8h-29.6c-4.1,0-7.8,2.2-9.7,5.8l0,0c-1.5,2.9-1.7,6.4-0.3,9.5l11.6,26.4l29.6-0.3
						C706.3,317.2,712.6,283.8,704.7,275.8z"/>
				</g>
			</g>
			<g>
				<g>
					<path class="st5" d="M293.6,272l152.7-2.8l99.4-1.8l32.8-18.9c2.7-1.5,3.4-5,1.5-7.5l-20.4-26.8c-2.1-2.8-5.4-4.4-8.9-4.5
						l-111.2-0.9c0,0-41.9-2.4-74.8,16C329.9,244.3,293.6,272,293.6,272z"/>
				</g>
			</g>
			<g>
				<g>
					<path class="st6" d="M363.6,211.6c0,0,7.7,3.5,2.7,6.7s-82.4,52-82.4,52l-17.8-8.1C297.6,244.7,329.5,227.7,363.6,211.6z"/>
				</g>
			</g>
			<g>
				<g>
					<g>
						<path class="st5" d="M286.4,271.5c0,0-0.2,0.1-0.5,0.1c-0.3,0.1-0.8,0.2-1.4,0.3c-1.3,0.3-3.1,0.6-5.4,1.1
							c-4.7,0.9-11.6,2.3-20,3.7c-17,2.9-40.5,6.3-66.7,8.6c-6.5,0.6-12.9,1-19.1,1.4c-6.2,0.4-12.1,0.8-17.8,1.3
							c-11.3,1-21.5,2.6-29.7,5.1c-8.3,2.4-14.6,5.4-18.7,7.8c-2.1,1.1-3.6,2.2-4.7,2.9c-0.5,0.3-0.9,0.6-1.2,0.8
							c-0.3,0.2-0.4,0.2-0.4,0.2s0.1-0.1,0.4-0.3c0.3-0.2,0.7-0.5,1.2-0.8c1.1-0.7,2.6-1.8,4.7-3c4.1-2.5,10.4-5.6,18.7-8
							c8.3-2.5,18.4-4.2,29.8-5.2c5.7-0.5,11.6-0.9,17.8-1.3s12.6-0.9,19.1-1.5c26.2-2.3,49.7-5.6,66.7-8.4
							c8.5-1.4,15.3-2.7,20.1-3.6c2.3-0.4,4.2-0.8,5.4-1c0.6-0.1,1.1-0.2,1.4-0.3C286.2,271.6,286.4,271.5,286.4,271.5z"/>
					</g>
				</g>
			</g>
			<g>
				<g>
					<g>
						<ellipse class="st5" cx="693.8" cy="339.9" rx="22.7" ry="0.3"/>
					</g>
				</g>
			</g>
			<g>
				<g>
					<g>
						<path class="st5" d="M530.3,365.9c0,0.1-57.5,0.3-128.3,0.3c-70.9,0-128.3-0.1-128.3-0.3c0-0.1,57.5-0.3,128.3-0.3
							C472.8,365.7,530.3,365.8,530.3,365.9z"/>
					</g>
				</g>
			</g>
			<g>
				<g>
					<g>
						<ellipse class="st5" cx="109.8" cy="340.8" rx="18.1" ry="0.3"/>
					</g>
				</g>
			</g>
			<g>
				<g>
					<path class="st6" d="M656.3,229.2c0,0-6.8,7.6-4.1,13.2c2.7,5.6,30.4,25.2,30.4,25.2l20.1,3.8L656.3,229.2z"/>
				</g>
			</g>
			<g>
				<g>
					<polygon class="st6" points="465.1,215.5 460.5,264.4 541.5,262.1 574.1,243.1 553,215.5 					"/>
				</g>
			</g>
			<g>
				<g>
					<path class="st6" d="M312.8,266.9c0,0,48.8-35.3,68.1-42.3c18.6-6.8,28.3-8.5,45.7-9c16.7-0.5,26.9,0,26.9,0l-12.9,49.6
						L312.8,266.9z"/>
				</g>
			</g>
			<g>
				<g>
					<g>
						<path class="st9" d="M305.6,267L305.6,267c0-3.1,1.7-5.9,4.4-7.5l11.2-6.3c3.2-1.8,6.8-2.7,10.5-2.7l0,0
							c2.3,0,4.5,0.4,6.7,1.1c4.8,1.6,8,6.1,8.2,11.2l0,0c0.3,7-5.3,12.8-12.3,12.8h-20C309.4,275.6,305.6,271.8,305.6,267z"/>
					</g>
				</g>
				<g>
					<g>
						<g>
							<path class="st5" d="M305.6,267c0,0,0,0.4,0.1,1.1s0.3,1.7,1,2.9c0.7,1.2,1.8,2.5,3.4,3.4c0.8,0.4,1.8,0.8,2.9,0.9
								s2.2,0.1,3.4,0.1c4.9,0,10.7,0,17.1-0.1c1.6,0,3.2-0.2,4.8-0.8c1.5-0.6,3-1.5,4.2-2.7s2.2-2.7,2.9-4.3
								c0.6-1.7,0.9-3.5,0.7-5.3c-0.3-3.6-2.2-7-5-9c-1.4-1-3-1.6-4.6-2s-3.3-0.6-4.8-0.6c-3.2,0-6.2,0.7-8.8,1.9
								c-1.3,0.6-2.5,1.3-3.6,1.9c-1.2,0.6-2.3,1.3-3.3,1.9c-2.1,1.2-4.1,2.2-5.7,3.2c-1.7,0.9-2.8,2.2-3.4,3.4
								c-0.7,1.2-0.9,2.2-1,2.9C305.6,266.7,305.6,267,305.6,267s-0.1-0.4,0-1.1s0.3-1.8,0.9-3s1.7-2.6,3.5-3.5
								c1.7-1,3.6-2.1,5.7-3.3c1.1-0.6,2.2-1.2,3.3-1.9c1.2-0.6,2.3-1.4,3.7-2c2.6-1.2,5.7-2,9-2c1.6,0,3.3,0.2,5,0.6
								c1.6,0.4,3.4,1,4.8,2c3,2,5,5.5,5.3,9.3c0.1,1.9-0.1,3.8-0.8,5.5c-0.7,1.7-1.7,3.3-3,4.5s-2.8,2.2-4.4,2.8
								c-1.6,0.6-3.3,0.8-4.9,0.8c-6.4,0-12.2,0-17.1-0.1c-1.2,0-2.4,0-3.5-0.1c-1.1-0.2-2.1-0.5-3-1c-1.7-1-2.8-2.3-3.5-3.5
								c-0.6-1.2-0.8-2.3-0.9-3C305.6,267.4,305.6,267,305.6,267z"/>
						</g>
					</g>
				</g>
			</g>
			<g>
				<g>
					<g>
						<path class="st13" d="M681.7,397.3c0,0,0-0.2,0-0.7s0.1-1.2,0.1-2c0.1-0.9,0.2-2,0.2-3.3s0.1-2.8,0.2-4.5c0-1.7,0-3.6,0-5.6
							c-0.1-2.1-0.1-4.3-0.4-6.7c-0.4-4.8-1.2-10.3-2.9-16.1c-0.9-2.9-1.8-5.9-3.2-9c-1.3-3-2.9-6.1-4.8-9.1
							c-3.8-6-9.2-11.6-15.6-16.3c-6.5-4.7-14.1-8.5-22.4-11.1c-8.3-2.6-17.4-3.5-26.7-3.6c-9.2,0-18.3,1.2-26.6,3.9
							c-4.2,1.3-8.1,3-11.8,4.9s-7.1,4.3-10.3,6.7c-6.3,5-11.6,10.5-15.8,16.2c-2.1,2.9-3.8,5.9-5.3,8.8c-1.4,3-2.7,5.9-3.6,8.8
							c-4,11.5-5.3,21.3-5.8,28.1c-0.2,3.4-0.1,6-0.1,7.8c0.1,0.9,0.1,1.6,0.1,2c0,0.5,0,0.7,0,0.7s0-0.2-0.1-0.7
							c0-0.5-0.1-1.1-0.2-2c-0.1-1.8-0.2-4.4,0-7.8c0.4-6.8,1.6-16.7,5.6-28.2c1-2.9,2.2-5.8,3.6-8.8c1.5-3,3.2-6,5.3-8.9
							c4.2-5.8,9.6-11.4,15.9-16.4c3.2-2.5,6.6-4.8,10.3-6.8c3.7-1.9,7.7-3.6,11.9-4.9c8.4-2.7,17.5-3.9,26.8-3.9
							c9.3,0.1,18.4,1,26.8,3.6c8.4,2.5,16.1,6.4,22.6,11.2c3.2,2.4,6.2,5,8.8,7.8s5,5.7,6.9,8.7s3.6,6.1,4.8,9.2
							c1.3,3,2.3,6.1,3.2,9c1.6,5.9,2.4,11.3,2.8,16.2c0.3,2.4,0.3,4.7,0.4,6.7c0,2.1,0,4,0,5.7c-0.1,1.7-0.1,3.2-0.2,4.5
							c-0.1,1.3-0.2,2.4-0.3,3.3s-0.1,1.6-0.2,2C681.8,397.1,681.7,397.3,681.7,397.3z"/>
					</g>
				</g>
			</g>
			<g>
				<g>
					<g>
						<path class="st14" d="M222.4,308.6"/>
					</g>
				</g>
			</g>
			<g>
				<g>
					<g>
						<path class="st13" d="M438.4,272c0,0-0.1,0-0.2,0c-0.2,0-0.4,0-0.7,0c-0.6,0-1.5,0-2.6,0.1c-2.3,0-5.6,0.1-9.6,0.2
							c-8.1,0.2-19.3,0.4-31.6,0.8c-12.4,0.3-23.6,0.6-31.7,0.6c-4.1,0-7.3,0-9.6,0c-1.1,0-2,0-2.6,0c-0.3,0-0.5,0-0.7,0
							s-0.2,0-0.2,0s0.1,0,0.2,0c0.2,0,0.4,0,0.7,0c0.6,0,1.5,0,2.6-0.1c2.3,0,5.6-0.1,9.6-0.2c8.1-0.2,19.3-0.4,31.6-0.8
							c12.4-0.3,23.5-0.6,31.6-0.6c4.1,0,7.3,0,9.6,0c1.1,0,2,0,2.6,0c0.3,0,0.5,0,0.7,0S438.4,272,438.4,272z"/>
					</g>
				</g>
			</g>
			<g>
				<g>
					<g>
						<ellipse class="st13" cx="416.4" cy="287.1" rx="8.8" ry="0.3"/>
					</g>
				</g>
			</g>
			<g>
				<g>
					<g>
						
							<ellipse transform="matrix(0.9269 -0.3752 0.3752 0.9269 -61.8046 169.364)" class="st13" cx="404" cy="243.4" rx="26.3" ry="0.3"/>
					</g>
				</g>
			</g>
			<g>
				<g>
					<g>
						
							<ellipse transform="matrix(0.9192 -0.3937 0.3937 0.9192 -66.261 170.7671)" class="st13" cx="383.1" cy="246.9" rx="25.3" ry="0.3"/>
					</g>
				</g>
			</g>
			<g>
				<g>
					<g>
						
							<ellipse transform="matrix(0.9269 -0.3752 0.3752 0.9269 -52.4928 213.3849)" class="st13" cx="521.7" cy="241.5" rx="26.3" ry="0.3"/>
					</g>
				</g>
			</g>
			<g>
				<g>
					<g>
						
							<ellipse transform="matrix(0.9192 -0.3937 0.3937 0.9192 -56.0071 216.9507)" class="st13" cx="500.8" cy="245" rx="25.3" ry="0.3"/>
					</g>
				</g>
			</g>
			<g>
				<g>
					<g>
						<path class="st13" d="M548.2,272c0,0.1-21.6,0.4-48.3,0.5c-26.7,0.2-48.3,0.2-48.3,0c0-0.1,21.6-0.4,48.3-0.5
							C526.6,271.9,548.2,271.9,548.2,272z"/>
					</g>
				</g>
			</g>
			<g>
				<g>
					<g>
						
							<ellipse transform="matrix(1 -9.341743e-003 9.341743e-003 1 -2.6512 5.231)" class="st13" cx="558.6" cy="286.4" rx="13.6" ry="0.3"/>
					</g>
				</g>
			</g>
			<g>
				<g>
					<g>
						<path class="st13" d="M158,278.9c0,0-0.2,0.1-0.6,0.1c-0.4,0.1-1,0.1-1.7,0.2s-1.6,0.2-2.7,0.4c-1,0.2-2.2,0.3-3.5,0.6
							c-2.6,0.5-5.7,1.1-9.1,2c-3.4,0.9-7,2.1-10.8,3.6s-7.3,3.1-10.4,4.7s-5.8,3.2-8,4.7c-1.1,0.7-2.1,1.4-3,2s-1.6,1.1-2.2,1.6
							c-0.6,0.4-1,0.7-1.4,1c-0.3,0.2-0.5,0.3-0.5,0.3s0.1-0.2,0.4-0.4c0.3-0.3,0.8-0.6,1.3-1.1c0.6-0.5,1.3-1,2.2-1.6
							c0.9-0.6,1.8-1.3,2.9-2c2.2-1.5,4.9-3.1,8-4.8c3.1-1.6,6.6-3.3,10.4-4.8c3.8-1.5,7.5-2.6,10.9-3.6c3.4-0.9,6.5-1.5,9.1-1.9
							c1.3-0.2,2.5-0.4,3.6-0.5c1-0.1,2-0.2,2.7-0.3c0.7-0.1,1.3-0.1,1.7-0.1C157.8,278.8,158,278.8,158,278.9z"/>
					</g>
				</g>
			</g>
			<g>
				<g>
					<g>
						<path class="st13" d="M336.6,255.3c0,0-0.3-0.4-1-0.9s-1.8-1.1-3.3-1.3s-3.4,0.1-5.3,0.6c-2,0.5-4.1,1.2-6.3,2.1
							c-4.3,1.9-7.9,4.4-10.2,6.4c-2.4,2-3.6,3.5-3.7,3.4c0,0,0.3-0.4,0.8-1.1c0.6-0.7,1.5-1.6,2.6-2.6c2.3-2.1,5.9-4.7,10.3-6.6
							c2.2-1,4.4-1.7,6.4-2.1c2-0.5,3.9-0.7,5.5-0.5s2.7,0.9,3.4,1.5c0.3,0.3,0.5,0.6,0.7,0.8C336.5,255.1,336.6,255.3,336.6,255.3z
							"/>
					</g>
				</g>
			</g>
		</g>
		<g>
			<g>
				<g>
					<path class="st5" d="M658.5,228.9c0,0-1.5,0.4-4.3,0.4c-1.4,0-3.1-0.2-5-0.6c-1.9-0.4-4.1-1.1-6.4-2c-2.3-0.9-4.8-2-7.4-3.1
						c-1.3-0.5-2.7-1.1-4.2-1.7c-1.4-0.6-2.9-1.1-4.5-1.6c-6.1-2.1-13-4-20.4-5.6c-14.7-3.1-28.3-4.4-38.1-4.7
						c-2.5-0.1-4.7-0.1-6.6-0.2c-1.9,0-3.6,0-5,0c-1.3,0-2.4,0.1-3.2,0.1c-0.3,0-0.6,0-0.8,0s-0.3,0-0.3,0s0.1,0,0.3,0
						s0.5,0,0.8-0.1c0.8,0,1.8-0.1,3.2-0.2c1.4,0,3.1-0.1,5-0.1c2,0,4.2,0,6.6,0.1c9.8,0.3,23.5,1.5,38.2,4.6
						c7.4,1.6,14.3,3.5,20.4,5.6c1.5,0.6,3,1.1,4.5,1.6c1.4,0.6,2.8,1.2,4.2,1.7c2.7,1.2,5.1,2.3,7.4,3.2c2.3,0.9,4.4,1.6,6.3,2
						c1.9,0.4,3.6,0.6,4.9,0.7c1.4,0,2.4,0,3.2-0.1c0.3,0,0.6-0.1,0.8-0.1C658.4,228.8,658.5,228.8,658.5,228.9z"/>
				</g>
			</g>
		</g>
	</g>
</g>
<g id="Character">
	<g>
		<g>
			<g>
				<path class="st8" d="M177.4,230.2c-4-21.9-6.7-25.2-8.9-32.8c-2.2-7.4-5.8-12.4-10.3-14.1c-3-1.2-18.1-6.6-23.3-4.8
					c-5.8,2-10.9,4.9-14.5,7.3c-3.5,2.3-6.2,5.7-7.6,9.7l-8.1,22.6l14.1,14l7.1-15l7.7,18l-1.1,18.2l43.9,11.8
					C180.3,258.7,179.7,242.6,177.4,230.2z"/>
			</g>
			<g>
				<g class="st15">
					<g>
						<path d="M166,206.4c-1.9,11.4-2.2,13-4.2,24.4c-0.7,3.9-2.6,10-5.4,12.8c-2.1,2.1-4.1,4.1-6.9,4.8c-2.7,0.6-6.7,0.7-9.2-0.4
							c-2.5-1.1-4.6-6-3.6-8.5c3.7,0.8,4.9,2,8.1,0c2.8-1.8,6.8-5.7,8.3-8.7C159.4,218.3,161.2,217.9,166,206.4"/>
					</g>
				</g>
			</g>
			<g>
				<g>
					<path class="st5" d="M134.2,228.4c-0.1,0-0.8-1.1-1.9-3c-1.2-2-2.8-4.6-4.5-7.4c-1.8-2.8-3.4-5.3-4.6-7.3
						c-1.2-1.9-1.9-3-1.9-3.1c0,0,0.3,0.2,0.6,0.7c0.4,0.5,0.9,1.2,1.5,2.1c1.3,1.8,3,4.4,4.8,7.2c1.8,2.9,3.3,5.5,4.4,7.5
						c0.5,1,1,1.8,1.2,2.3C134.1,228.1,134.2,228.4,134.2,228.4z"/>
				</g>
			</g>
			<g>
				<g>
					<path class="st5" d="M164.8,248.9c0,0-0.4,0.2-1,0.4c-0.3,0.1-0.8,0.2-1.2,0.3c-0.5,0.1-1,0.3-1.7,0.4
						c-1.3,0.2-2.8,0.4-4.4,0.4c-1.7,0-3.5-0.1-5.5-0.5c-1.9-0.4-3.7-0.9-5.3-1.5s-2.9-1.3-4-1.9c-0.6-0.3-1-0.6-1.4-0.9
						c-0.4-0.3-0.8-0.5-1-0.8c-0.6-0.4-0.9-0.7-0.8-0.7c0.1-0.1,1.3,0.9,3.5,2.1c1.1,0.6,2.5,1.2,4,1.8c1.6,0.6,3.3,1.1,5.2,1.4
						c1.9,0.3,3.7,0.5,5.4,0.5s3.1-0.1,4.4-0.3C163.3,249.2,164.8,248.8,164.8,248.9z"/>
				</g>
			</g>
			<g>
				<g>
					<g>
						<path class="st16" d="M147.2,214.8c-0.1,0.4-4.8,9.8-4.8,9.8l-22.3-11.7l-2.3-9.6c-0.4-1.5-1.3-2.8-2.6-3.6
							c-1.4-0.9-3.1-1.2-4.6-0.8l-6.6,2.7c-0.5,0.2-1,0.7-1.1,1.3c-0.1,0.5,0,1,0.9,0.9c1.6-0.1,5-0.5,5-0.5l-1.6,5.5
							c-0.4,1.4-0.2,3,0.4,4.3l1,1.9l2.2,3.5l0,0c0,0,21.7,22.2,33.8,23.7c7.3,0.9,15.6-19.6,15.6-19.6L147.2,214.8z"/>
					</g>
					<g>
						<g>
							<g>
								<g>
									<g>
										<g>
											<path class="st17" d="M108.7,203.5c0,0,0.2-0.2,0.5-0.5c0.4-0.2,1-0.5,1.7-0.5s1.3,0.5,1.5,1c0.2,0.4,0.1,0.8,0,0.7
												c-0.1,0,0-0.3-0.2-0.6s-0.7-0.7-1.3-0.7c-0.6,0-1.2,0.2-1.6,0.4C109,203.4,108.7,203.6,108.7,203.5z"/>
										</g>
									</g>
								</g>
							</g>
							<g>
								<g>
									<g>
										<g>
											<path class="st17" d="M111.5,206.9c0,0-0.1-0.2-0.4-0.4c-0.2-0.3-0.6-0.6-1-0.8c-0.5-0.2-0.9-0.2-1.3-0.1
												c-0.3,0-0.5,0.1-0.6,0.1c0,0,0.2-0.2,0.5-0.3c0.4-0.1,0.9-0.2,1.4,0.1c0.5,0.2,0.9,0.6,1.1,0.9
												C111.5,206.7,111.5,206.9,111.5,206.9z"/>
										</g>
									</g>
								</g>
							</g>
						</g>
					</g>
				</g>
				<g>
					<path class="st8" d="M151.8,185.1l-6,28.6l16,9.6l6.1-17.6C167.9,205.7,165.4,184.4,151.8,185.1z"/>
				</g>
				<g>
					<g>
						<path class="st0" d="M160.4,185.6c0,0-0.1,0.1-0.4,0.3c-0.3,0.2-0.7,0.4-1.2,0.6c-1.1,0.5-2.6,1.3-4.6,2.2
							c-3.9,1.7-9.4,3.9-15.9,5s-12.5,0.6-16.6-0.6c-2.1-0.6-3.7-1.2-4.8-1.7c-0.5-0.2-0.9-0.5-1.2-0.6c-0.3-0.2-0.4-0.2-0.4-0.3
							c0,0,0.6,0.2,1.7,0.7s2.7,1,4.8,1.5c4.1,1,10.1,1.5,16.4,0.4c6.4-1.1,11.9-3.2,15.8-4.8c2-0.8,3.5-1.5,4.6-2
							C159.8,185.8,160.4,185.6,160.4,185.6z"/>
					</g>
				</g>
				<g>
					<g>
						<path class="st0" d="M164.6,188.8c0,0-0.1,0.1-0.4,0.3c-0.4,0.2-0.8,0.5-1.3,0.8c-0.6,0.4-1.3,0.8-2.2,1.3s-1.8,1-2.9,1.5
							c-0.6,0.3-1.1,0.5-1.7,0.8c-0.6,0.3-1.3,0.5-1.9,0.8c-1.3,0.6-2.8,1-4.3,1.5c-3.1,0.9-6.6,1.7-10.3,2.2
							c-3.7,0.4-7.3,0.5-10.5,0.3c-1.6-0.1-3.2-0.2-4.6-0.5c-0.7-0.1-1.4-0.2-2.1-0.3s-1.3-0.3-1.9-0.4c-1.2-0.2-2.3-0.5-3.2-0.8
							c-0.9-0.2-1.7-0.5-2.4-0.7c-0.6-0.2-1.1-0.4-1.5-0.5c-0.3-0.1-0.5-0.2-0.5-0.2s0.2,0,0.5,0.1c0.4,0.1,0.9,0.3,1.5,0.4
							c0.7,0.2,1.5,0.4,2.4,0.6c0.9,0.2,2,0.5,3.2,0.7c0.6,0.1,1.2,0.2,1.9,0.3c0.7,0.1,1.3,0.2,2.1,0.3c1.4,0.2,2.9,0.3,4.6,0.4
							c3.2,0.1,6.8,0.1,10.5-0.4s7.1-1.2,10.2-2.1c1.5-0.5,3-0.9,4.3-1.5c0.7-0.3,1.3-0.5,1.9-0.7c0.6-0.3,1.2-0.5,1.8-0.8
							c1.1-0.5,2.1-1,3-1.4s1.6-0.8,2.2-1.2c0.6-0.3,1-0.6,1.4-0.8C164.5,188.8,164.6,188.7,164.6,188.8z"/>
					</g>
				</g>
				<g>
					<g>
						<path class="st5" d="M161.8,223.3c0,0-0.5-0.2-1.3-0.7c-0.9-0.5-2.1-1.2-3.5-2c-3-1.8-7.2-4.2-12-6.9l-0.2-0.1v-0.2
							c0.4-2.1,0.9-4.4,1.4-6.8c0.7-3.6,1.4-6.9,2.1-10c0.3-1.5,0.6-3,0.9-4.4c0.3-1.4,0.7-2.6,1.3-3.7c1.1-2.2,2.9-3.4,4.1-3.8
							c0.6-0.2,1.2-0.3,1.5-0.3c0.4,0,0.5,0,0.5,0.1s-0.8-0.1-2,0.4s-2.9,1.6-3.9,3.8c-0.5,1-0.9,2.3-1.2,3.6
							c-0.3,1.4-0.6,2.8-0.9,4.4c-0.6,3.1-1.3,6.5-2,10c-0.5,2.4-0.9,4.7-1.4,6.8l-0.1-0.3c4.8,2.8,8.9,5.3,11.9,7.1
							c1.4,0.9,2.6,1.6,3.4,2.1C161.4,223,161.8,223.3,161.8,223.3z"/>
					</g>
				</g>
			</g>
			<g>
				<g>
					<path class="st5" d="M166.7,204.9c0.1,0,0.1,1-0.1,2.7c-0.2,1.6-0.5,3.9-1.1,6.3c-0.6,2.4-1.4,4.6-2.1,6.1
						c-0.7,1.5-1.2,2.4-1.2,2.4c-0.1,0,0.3-1,0.9-2.5c0.6-1.5,1.3-3.7,2-6.1c0.6-2.4,1-4.6,1.3-6.2
						C166.5,205.9,166.6,204.9,166.7,204.9z"/>
				</g>
			</g>
		</g>
		<g>
			<g>
				<g>
					<g>
						<path class="st6" d="M79.9,363.9l-0.2,15.3c0,0-15.6,4.9-15.9,7.8l29.6,1.4l1.3-23.8L79.9,363.9z"/>
					</g>
					<g>
						<g>
							<path class="st1" d="M89,378.3c0.6,0.2,0.9,0.8,0.8,1.4c-0.2,0.6-0.8,0.9-1.4,0.8c-0.6-0.2-1-1-0.8-1.5
								C87.8,378.4,88.6,378,89,378.3"/>
						</g>
					</g>
					<g>
						<path class="st1" d="M93.4,388.3v-2.4L65,385.5c0,0-1.3,0.5-1.2,1.4L93.4,388.3z"/>
					</g>
					<g>
						<g>
							<path class="st5" d="M79.3,379c0,0.1,0.7,0.2,1.4,0.7c0.7,0.5,1,1.1,1.2,1.1c0.1,0,0-0.9-0.9-1.5S79.2,378.9,79.3,379z"/>
						</g>
					</g>
					<g>
						<g>
							<path class="st5" d="M76.1,380.1c0,0.1,0.6,0.4,1,1c0.5,0.6,0.6,1.3,0.7,1.3s0.3-0.8-0.3-1.6C77,380.1,76.1,380,76.1,380.1z"
								/>
						</g>
					</g>
					<g>
						<g>
							<path class="st5" d="M74.2,383.8c0.1,0,0.4-0.7,0-1.5c-0.3-0.8-1-1.2-1.1-1c-0.1,0.1,0.3,0.6,0.6,1.2
								C74,383.1,74,383.7,74.2,383.8z"/>
						</g>
					</g>
					<g>
						<g>
							<path class="st5" d="M79.7,375.5c0.1,0.1,0.7,0,1.5,0.1s1.4,0.4,1.5,0.3s-0.5-0.7-1.5-0.8C80.3,375,79.6,375.4,79.7,375.5z"
								/>
						</g>
					</g>
				</g>
				<g class="st18">
					<polygon points="79.9,366.9 79.9,369.6 94.4,370.2 94.5,367.8 					"/>
				</g>
				<g>
					<g>
						<path class="st5" d="M79.8,372.4c0,0.1,0.6,0.2,1.5,0.1c0.5-0.1,1-0.2,1.6-0.4c0.3-0.1,0.6-0.2,0.9-0.4
							c0.1-0.1,0.3-0.2,0.5-0.3c0.2-0.1,0.3-0.5,0.1-0.8c-0.1-0.2-0.4-0.3-0.6-0.4c-0.2,0-0.4,0-0.6,0.1c-0.3,0.1-0.6,0.2-0.9,0.3
							c-0.6,0.2-1.1,0.5-1.4,0.8c-0.7,0.6-1,1.1-0.9,1.2s0.4-0.4,1.1-0.9c0.4-0.2,0.8-0.5,1.4-0.7c0.3-0.1,0.6-0.2,0.9-0.2
							c0.3-0.1,0.6-0.1,0.7,0.1c0,0.1,0,0.1,0,0.2c-0.1,0.1-0.2,0.2-0.3,0.2c-0.3,0.2-0.5,0.3-0.8,0.4c-0.5,0.2-1,0.4-1.5,0.5
							C80.3,372.4,79.8,372.4,79.8,372.4z"/>
					</g>
				</g>
				<g>
					<g>
						<path class="st5" d="M80,372.7c0.1,0,0.4-0.5,0.5-1.4c0-0.5,0-1-0.1-1.6c-0.1-0.3-0.2-0.6-0.3-0.9c-0.2-0.3-0.4-0.7-0.9-0.8
							c-0.3,0-0.5,0.2-0.6,0.4c-0.1,0.2-0.1,0.4-0.2,0.5c-0.1,0.3-0.1,0.7,0,1c0.1,0.6,0.3,1.2,0.6,1.6c0.5,0.8,1.1,1,1.2,0.9
							s-0.4-0.4-0.8-1.1c-0.2-0.4-0.4-0.9-0.4-1.4c0-0.3,0-0.6,0.1-0.9s0.2-0.6,0.3-0.5c0.1,0,0.4,0.3,0.5,0.5
							c0.1,0.3,0.2,0.5,0.3,0.8c0.2,0.5,0.2,1.1,0.2,1.5C80.1,372.1,79.9,372.6,80,372.7z"/>
					</g>
				</g>
			</g>
			<g>
				<g>
					<path class="st5" d="M140.2,253.4c0,0-46.2-19.4-60.5-20.2c-9-0.5-15.8,5.2-14.5,14.5c0.6,4.6,13.4,59,13.4,59l19.5-8.9
						l-9.4-37.6l38,18.5L140.2,253.4z"/>
				</g>
				<g>
					<g>
						<path class="st6" d="M82.8,250.7c-0.2,0.1,1.4,2.1,3,4.7c1.6,2.6,2.7,4.9,2.9,4.8c0.2-0.1-0.6-2.5-2.3-5.1
							C84.8,252.4,83,250.6,82.8,250.7z"/>
					</g>
				</g>
				<g>
					<g>
						<path class="st6" d="M79,252.9c-0.1,0.2,2.2,1.7,5,3.7c2.7,2,4.9,3.8,5,3.7c0.1-0.1-1.8-2.2-4.6-4.2
							C81.6,254,79.1,252.7,79,252.9z"/>
					</g>
				</g>
			</g>
			<g>
				<g>
					<path class="st5" d="M176.3,265.1c0,0-5.8,7.5-11.4,9.5c-7,2.6-58.5,26.9-58.5,26.9s-9.3,69.4-8.6,66.5l-21.6-0.5l2.3-63.9
						c0.3-8.2,6.8-17.6,13.9-21.8l47.7-28.4L176.3,265.1z"/>
				</g>
				<g>
					<g>
						<path class="st6" d="M78.2,315.2c0,0,0.1-0.3,0.1-0.9s0.1-1.5,0.1-2.5c0.1-2.2,0.2-5.3,0.9-9.2c0.6-3.8,1.8-8.4,4.7-12.7
							c1.4-2.1,3.3-4,5.5-5.7s4.7-3.2,7.3-4.6c10.4-5.9,19.3-12,25.9-16.2c3.3-2.1,6-3.8,7.8-4.9c0.9-0.5,1.6-1,2.1-1.3
							s0.7-0.5,0.7-0.5s-0.3,0.1-0.8,0.4s-1.3,0.7-2.2,1.2c-1.9,1.1-4.6,2.7-8,4.7c-6.7,4.1-15.7,10-26,16c-2.6,1.5-5.1,3-7.4,4.7
							s-4.2,3.7-5.7,5.9c-2.9,4.4-4,9.1-4.6,12.9c-0.6,3.9-0.6,7.1-0.6,9.3c0,1,0,1.9,0,2.5C78.2,314.9,78.2,315.2,78.2,315.2z"/>
					</g>
				</g>
			</g>
			<g>
				<g>
					<path class="st6" d="M157.3,272.4c0.1-0.1-0.5-0.7-1.3-1.8c-0.8-1.1-1.6-2.8-2-4.8s-0.3-3.9,0-5.2c0.3-1.3,0.6-2.1,0.5-2.1
						s-0.6,0.7-1,2s-0.6,3.3-0.2,5.5c0.4,2.1,1.4,3.9,2.3,4.9C156.5,272,157.2,272.4,157.3,272.4z"/>
				</g>
			</g>
			<g>
				<g>
					<path class="st6" d="M84.2,367.4c0,0,0-0.1,0.1-0.4c0-0.3,0.1-0.6,0.1-1c0.1-1,0.2-2.3,0.4-4c0.4-3.6,0.8-8.6,1.5-14.9
						c0.3-3.1,0.6-6.6,1-10.3c0.4-3.7,0.7-7.6,1-11.8c0.3-4.2,0.7-8.5,1.5-13c0.8-4.4,1.9-9,4-13.3c2-4.3,4.8-8.1,7.8-11.5
						c3.1-3.3,6.4-6.1,9.8-8.6c6.7-4.9,13.3-8.5,18.8-11.7c5.5-3.1,9.8-5.8,12.7-7.8c1.5-1,2.6-1.8,3.3-2.4c0.3-0.3,0.6-0.5,0.8-0.7
						c0.2-0.2,0.3-0.2,0.3-0.2s-0.1,0.1-0.3,0.2c-0.2,0.2-0.5,0.4-0.9,0.6c-0.8,0.5-1.9,1.3-3.4,2.3c-2.9,1.9-7.3,4.6-12.8,7.6
						c-5.5,3.1-12.1,6.7-18.9,11.6c-3.4,2.5-6.8,5.3-9.9,8.6c-3.1,3.4-5.9,7.2-8,11.6c-2,4.4-3.2,9-4,13.5s-1.1,8.9-1.4,13
						c-0.3,4.2-0.6,8.1-1,11.8c-0.3,3.7-0.6,7.1-0.9,10.3c-0.5,6.2-0.9,11.3-1.2,14.9c-0.1,1.7-0.2,3.1-0.3,4.1c0,0.4,0,0.8-0.1,1.1
						C84.2,367.3,84.2,367.4,84.2,367.4z"/>
				</g>
			</g>
		</g>
		<g>
			<g>
				<path class="st5" d="M135,143.3c-1.3-3.8-5.8-6.1-9.6-5.2c-0.9,0.2-1.8,0.6-2.7,0.6c-1.1,0-2.2-0.6-3.3-0.9
					c-2.4-0.5-5,1.2-5.5,3.6c-1.9-0.4-4-0.1-5.5,1.1c-1.5,1.2-2.2,3.5-1.3,5.2c0.4,0.7,1,1.3,1.4,2.1c0.6,1.2,0.3,2.7,0.7,4
					c0.6,1.9,2.7,3.1,4.7,3.3s4-0.3,6-0.9"/>
			</g>
			<g>
				<g>
					<g>
						<g>
							<g>
								<g>
									<g>
										<g>
											<g>
												<g>
													<path class="st16" d="M125.7,182.9c-0.3-1.9-0.4-3.3-0.4-3.3s-6.4,0-9-8c-1.3-4-2.2-10.7-2.7-16.2
														c-0.5-5,3.3-9.3,8.3-9.6l17.1-0.9l0.4,2.7l4.5,32.9c0.7,5-2.8,9.6-7.9,10.3l0,0C130.9,191.4,126.3,187.9,125.7,182.9z"
														/>
												</g>
											</g>
										</g>
									</g>
									<g>
										<g>
											<g>
												<g>
													<g>
														<path class="st5" d="M116,160.1c0.1,0.6,0.6,1,1.2,0.9s1-0.6,0.9-1.1c-0.1-0.6-0.6-1-1.2-0.9
															C116.3,159,115.9,159.5,116,160.1z"/>
													</g>
												</g>
											</g>
										</g>
										<g>
											<g>
												<g>
													<g>
														<g>
															<path class="st5" d="M115.6,158.6c0.2,0.1,0.9-0.6,2-0.8s2,0.3,2.1,0.1c0.1-0.1-0.1-0.3-0.5-0.5s-1-0.4-1.7-0.2
																c-0.7,0.1-1.3,0.5-1.6,0.8C115.6,158.3,115.5,158.6,115.6,158.6z"/>
														</g>
													</g>
												</g>
											</g>
										</g>
									</g>
									<g>
										<g>
											<g>
												<g>
													<g>
														<path class="st5" d="M126.7,158.3c0.1,0.6,0.6,1,1.2,0.9c0.6-0.1,1-0.6,0.9-1.1c-0.1-0.6-0.6-1-1.2-0.9
															C127.1,157.2,126.7,157.7,126.7,158.3z"/>
													</g>
												</g>
											</g>
										</g>
										<g>
											<g>
												<g>
													<g>
														<g>
															<path class="st5" d="M126.7,157.1c0.2,0.1,0.9-0.6,2-0.8c1.1-0.2,2,0.3,2.1,0.1c0.1-0.1-0.1-0.3-0.5-0.5
																s-1-0.4-1.7-0.2c-0.7,0.1-1.3,0.5-1.6,0.8C126.7,156.7,126.6,157,126.7,157.1z"/>
														</g>
													</g>
												</g>
											</g>
										</g>
									</g>
									<g>
										<g>
											<g>
												<g>
													<g>
														<path class="st5" d="M123.9,166.1c0-0.1-0.7-0.1-1.9,0c-0.3,0-0.6,0-0.7-0.2s0-0.5,0.1-0.9c0.2-0.7,0.3-1.5,0.5-2.3
															c0.7-3.3,1.1-6,1-6.1c-0.1,0-0.8,2.6-1.5,6c-0.2,0.8-0.3,1.6-0.5,2.3c-0.1,0.3-0.2,0.7,0,1.2c0.1,0.2,0.3,0.3,0.5,0.3
															s0.4,0,0.5,0C123.2,166.3,123.9,166.2,123.9,166.1z"/>
													</g>
												</g>
											</g>
										</g>
									</g>
									<g>
										<g>
											<g>
												<g>
													<path class="st17" d="M125.3,179.6c0,0,5.6-0.5,10.5-4.7c0,0-1.8,6-10.1,6.6L125.3,179.6z"/>
												</g>
											</g>
										</g>
									</g>
									<g>
										<g>
											<g>
												<g>
													<g>
														<path class="st5" d="M127.4,166.3c-0.2,0,0,1.2-0.9,2.3c-0.9,1-2.2,1.1-2.2,1.3c0,0.1,0.3,0.2,0.9,0.1
															c0.5-0.1,1.3-0.4,1.9-1s0.7-1.4,0.7-1.9C127.6,166.6,127.5,166.3,127.4,166.3z"/>
													</g>
												</g>
											</g>
										</g>
									</g>
								</g>
							</g>
						</g>
						<g>
							<g>
								<g>
									<g>
										<path class="st5" d="M125.7,152.7c0.2,0.3,1.3,0,2.6-0.1c1.4-0.1,2.5,0.1,2.6-0.2c0.1-0.1-0.2-0.4-0.7-0.6
											c-0.5-0.2-1.2-0.4-2-0.4s-1.5,0.3-2,0.6C125.8,152.3,125.6,152.5,125.7,152.7z"/>
									</g>
								</g>
							</g>
						</g>
						<g>
							<g>
								<g>
									<g>
										<path class="st5" d="M115.5,155.3c0.2,0.2,1-0.2,1.9-0.3c0.9-0.2,1.8-0.1,1.9-0.4c0.1-0.1-0.1-0.4-0.5-0.6
											c-0.4-0.2-1-0.3-1.6-0.2s-1.2,0.4-1.4,0.8C115.4,154.9,115.3,155.2,115.5,155.3z"/>
									</g>
								</g>
							</g>
						</g>
						<g>
							<g>
								<g>
									<g>
										<path class="st5" d="M112.7,151.8c0,0,4.5,1.5,9.7-2c3.4-2.3,7.6-3.7,8.6-3.1c1,0.6,1.7,4.3,5.5,5c0,0,0.7,7.2,3.5,6.6
											c2-0.4,0.8-8.4,0-12.9c-0.3-1.8-1.9-3.1-3.7-3.2L131,142l-6.6,1.8l-7.1,1.9l-5.4,2.2L112.7,151.8z"/>
									</g>
								</g>
							</g>
						</g>
					</g>
					<g>
						<g>
							<g>
								<g>
									<g>
										<g>
											<path class="st16" d="M139.3,155.4c0.1-0.1,4.5-2.4,5.3,2.4c0.8,4.8-4.1,4.6-4.2,4.5
												C140.4,162.1,139.3,155.4,139.3,155.4z"/>
										</g>
									</g>
								</g>
							</g>
						</g>
						<g>
							<g>
								<g>
									<g>
										<g>
											<g>
												<path class="st17" d="M141.6,160.2c0,0,0.1,0,0.2,0.1c0.1,0,0.4,0,0.6-0.1c0.5-0.3,0.8-1.1,0.6-2
													c-0.1-0.4-0.2-0.8-0.4-1.2c-0.2-0.3-0.5-0.5-0.7-0.5c-0.3,0-0.4,0.2-0.5,0.3c0,0.1,0,0.2,0,0.2s-0.1-0.1-0.1-0.3
													c0-0.1,0-0.2,0.1-0.3s0.3-0.2,0.4-0.2c0.4,0,0.8,0.2,1,0.6c0.3,0.3,0.4,0.8,0.5,1.3c0.1,1-0.2,1.9-0.9,2.3
													c-0.3,0.1-0.6,0.1-0.8,0C141.6,160.3,141.6,160.2,141.6,160.2z"/>
											</g>
										</g>
									</g>
								</g>
							</g>
						</g>
					</g>
				</g>
			</g>
			<g>
				<g>
					<path class="st6" d="M115,139.7c0,0,0.2,0.3,0.5,0.6c0.3,0.4,0.9,0.9,1.8,1.2s2,0.4,3.2,0.1c1.2-0.2,2.5-0.7,3.8-1.2
						c1.4-0.5,2.8-0.8,4.1-0.7s2.4,0.7,3.1,1.4c0.7,0.7,0.9,1.5,1,2.1c0,0.6-0.1,0.8-0.1,0.8s0-0.3-0.1-0.8s-0.4-1.2-1-1.9
						c-0.6-0.6-1.7-1.1-2.9-1.2c-1.2-0.1-2.5,0.3-3.9,0.7c-1.4,0.5-2.7,1-3.9,1.2c-1.3,0.2-2.5,0.1-3.4-0.3
						c-0.9-0.4-1.5-0.9-1.8-1.4C115,140,115,139.7,115,139.7z"/>
				</g>
			</g>
			<g>
				<g>
					<path class="st6" d="M131.1,144.3c0,0-0.2-0.3-0.7-0.6s-1.3-0.7-2.4-0.7c-1.1-0.1-2.3,0.3-3.6,0.9c-1.3,0.6-2.7,1.5-4.3,2
						c-3.4,1.1-6.6,0.2-8.5-0.9c-1-0.6-1.7-1.2-2.1-1.6c-0.4-0.5-0.6-0.7-0.6-0.8c0.1-0.1,0.9,1,2.9,2.1c1.9,1,5,1.8,8.2,0.8
						c1.6-0.5,2.9-1.4,4.3-2c1.3-0.6,2.7-0.9,3.9-0.8c1.1,0.1,2,0.5,2.5,0.9C131,143.9,131.1,144.3,131.1,144.3z"/>
				</g>
			</g>
		</g>
		<g>
			<path class="st9" d="M95.6,202.8"/>
		</g>
		<g>
			<g>
				<g>
					<g>
						<g>
							<path class="st16" d="M116.3,225.5l-23.2-19.8l-7.7,1.7c0,0,8.1,16.8,13.9,22.9c0,0,5.8,7.7,15.3,4.4
								C124.1,231.4,116.3,225.5,116.3,225.5z"/>
						</g>
					</g>
				</g>
			</g>
			<g>
				<g>
					<g>
						<g>
							<path class="st6" d="M91.3,183.9h-9.9c-1.5,0-2.8,1.7-2.3,3.1l9.9,19.3c0.4,0.7,1.2,1.2,2,1.2h12c1.4-0.2,1.9-1.7,1.3-2.5
								l-9.6-18.9C94.2,184.8,92.8,183.9,91.3,183.9z"/>
						</g>
					</g>
				</g>
				<g>
					<g>
						<g>
							<path class="st5" d="M90.7,185.1h-9.9c-1.2,0-2,1.3-1.5,2.4l9.7,18.9c0.4,0.7,1.2,1.2,2,1.2h11.9c0.7,0,1.2-0.8,0.9-1.4
								l-9.6-18.9C93.5,186,92.2,185.1,90.7,185.1z"/>
						</g>
					</g>
				</g>
			</g>
			<g>
				<g>
					<g>
						<g>
							<path class="st16" d="M89.8,193l-6,2.4l-1.3,4.8l2.9,7.2L96,209l-3.1-3.2l0.4-2.8c0,0,3-0.9,3-1.4c0.1-0.5-0.4-2-0.8-2
								c-0.5-0.1-3.6,1.1-3.6,1.1s3.7-2.9,3.6-3.4s-0.5-1.7-1.2-1.8s-6.7,2.7-6.7,2.7l-1,2.2l-0.8-3.5
								C85.9,196.9,91.1,195.4,89.8,193z"/>
						</g>
					</g>
				</g>
				<g>
					<g>
						<g>
							<g>
								<path class="st17" d="M90.6,204.4c0,0-0.1-0.2-0.2-0.6c-0.1-0.4,0-0.9,0.2-1.5s0.6-1,0.9-1.3s0.5-0.4,0.5-0.3
									c0.1,0.1-0.7,0.6-1.1,1.7C90.4,203.4,90.7,204.3,90.6,204.4z"/>
							</g>
						</g>
					</g>
				</g>
				<g>
					<g>
						<g>
							<g>
								<path class="st17" d="M87.7,203.3c0,0,0.2-0.6,0.2-1.6c0-0.5,0.1-1.1,0.3-1.7c0.1-0.3,0.3-0.7,0.6-0.9
									c0.3-0.3,0.6-0.5,1-0.6c1.4-0.5,2.7-0.9,3.7-1.2c0.9-0.3,1.5-0.5,1.6-0.4c0,0-0.6,0.3-1.5,0.6c-0.9,0.4-2.2,0.8-3.6,1.3
									c-0.3,0.1-0.7,0.3-0.9,0.5c-0.2,0.2-0.4,0.5-0.5,0.8c-0.2,0.6-0.3,1.2-0.4,1.7C88.1,202.8,87.8,203.3,87.7,203.3z"/>
							</g>
						</g>
					</g>
				</g>
				<g>
					<g>
						<g>
							<g>
								
									<ellipse transform="matrix(0.1629 -0.9866 0.9866 0.1629 -125.9527 253.6901)" class="st17" cx="86.5" cy="201.1" rx="1.2" ry="0.2"/>
							</g>
						</g>
					</g>
				</g>
			</g>
			<g>
				<g>
					<g>
						<circle class="st7" cx="87.4" cy="188.7" r="1.3"/>
					</g>
				</g>
			</g>
		</g>
	</g>
</g>
<g id="Plant">
	<g>
		<g>
			<g>
				<path class="st8" d="M51.6,379.4c3.2,0.9,5.7,3.3,7.3,6.2c1.5,2.9,2.1,6.2,2.2,9.5c0.2,6.3-2.4,13.1-5.5,18.7
					c-5.9-3.8-8.3-11.6-9.2-15.7C44.9,391.6,46,379.2,51.6,379.4"/>
			</g>
		</g>
		<g>
			<g>
				<path class="st8" d="M63.2,423.1c-1.4-3.4-0.4-7.5,1.9-10.3c2.4-2.8,6-4.4,9.6-4.6c1.7-0.1,3.6,0.1,4.7,1.3
					c1.1,1.2,1.2,3,0.7,4.5s-1.6,2.7-2.8,3.7C73.2,421.2,68.6,423.8,63.2,423.1"/>
			</g>
		</g>
		<g>
			<g>
				<g>
					<path class="st5" d="M59.2,443.1c0,0,0-0.5,0-1.3c0-0.9,0.1-2.1,0.1-3.5c0.2-3,0.3-7.2,2-11.6c1.6-4.3,4.3-7.7,6.7-9.6
						c1.2-0.9,2.3-1.6,3-1.9c0.4-0.2,0.7-0.3,0.9-0.4c0.2-0.1,0.3-0.1,0.3-0.1c0.1,0.1-1.8,0.7-4,2.6c-2.3,1.9-4.9,5.2-6.5,9.5
						s-1.8,8.5-2.1,11.4c-0.1,1.5-0.2,2.7-0.3,3.5C59.3,442.7,59.3,443.1,59.2,443.1z"/>
				</g>
			</g>
		</g>
		<g>
			<g>
				<g>
					<path class="st5" d="M51.6,388.9c0,0,0.1,0.2,0.1,0.5c0.1,0.4,0.2,0.9,0.3,1.6c0.3,1.4,0.7,3.4,1.1,5.9c0.9,5,2,11.8,3.1,19.5
						c1.1,7.6,1.9,14.5,2.4,19.6c0.3,2.5,0.5,4.5,0.6,5.9c0.1,0.7,0.1,1.2,0.1,1.6s0,0.6,0,0.6s-0.1-0.2-0.1-0.6
						c-0.1-0.4-0.1-0.9-0.2-1.6c-0.2-1.5-0.4-3.5-0.7-5.9c-0.6-5-1.5-11.9-2.5-19.5c-1.1-7.6-2.2-14.5-3-19.5
						c-0.4-2.4-0.7-4.4-1-5.9c-0.1-0.7-0.2-1.2-0.2-1.6C51.6,389.1,51.5,388.9,51.6,388.9z"/>
				</g>
			</g>
		</g>
		<g>
			<g>
				<path class="st8" d="M54.7,428.2c-2.3-7.4-8.4-13.4-15.7-15.7c-1.9-0.6-4.2-0.8-5.5,0.7s-0.6,3.8,0.4,5.5
					c4,7.1,12.7,11.3,20.8,10"/>
			</g>
		</g>
		<g>
			<g>
				<g>
					<path class="st5" d="M40.7,418.2c0,0,0.4,0.1,1.2,0.3c0.4,0.1,0.8,0.3,1.4,0.5c0.5,0.2,1.1,0.4,1.7,0.8c0.6,0.3,1.3,0.7,2,1.1
						s1.4,0.9,2.2,1.5c1.5,1.1,3,2.5,4.4,4.2s2.4,3.5,3.2,5.2c0.4,0.9,0.7,1.7,1,2.5s0.5,1.5,0.6,2.2c0.2,0.7,0.3,1.3,0.4,1.9
						c0.1,0.6,0.1,1,0.2,1.4c0.1,0.8,0.1,1.2,0,1.2s-0.2-1.7-0.9-4.5c-0.2-0.7-0.4-1.4-0.7-2.2c-0.3-0.8-0.6-1.6-1-2.4
						c-0.8-1.7-1.9-3.4-3.2-5.1c-1.4-1.6-2.8-3-4.3-4.2c-0.7-0.6-1.4-1.1-2.1-1.5c-0.7-0.5-1.4-0.8-2-1.1
						C42.3,418.8,40.6,418.3,40.7,418.2z"/>
				</g>
			</g>
		</g>
	</g>
</g>
</svg>
