<?xml version="1.0" encoding="utf-8"?>
<!-- Generator: Adobe Illustrator 19.2.1, SVG Export Plug-In . SVG Version: 6.00 Build 0)  -->
<svg version="1.1" id="Capa_1" xmlns="http://www.w3.org/2000/svg" xmlns:xlink="http://www.w3.org/1999/xlink" x="0px" y="0px"
	 viewBox="0 0 1100 800" style="enable-background:new 0 0 1100 800;" xml:space="preserve">
<style type="text/css">
	.st0{fill:#F1F2F2;}
	.st1{fill:#EAC1A4;}
	.st2{fill:#8C9498;}
	.st3{opacity:0.26;enable-background:new    ;}
	.st4{fill:none;}
	.st5{fill:#599AFD;}
	.st6{fill:#0D6EFD;}
	.st7{fill:#3B455A;}
	.st8{fill:#8C9295;}
	.st9{fill:#FFFFFF;}
	.st10{fill:#EBCEB1;}
	.st11{fill:#FC3F26;}
	.st12{fill:#D7E8F4;}
	.st13{opacity:0.2;}
	.st14{fill:#FFFDF1;}
	.st15{opacity:0.1;fill:#000100;enable-background:new    ;}
	.st16{opacity:0.5;fill:#29313F;enable-background:new    ;}
	.st17{opacity:6.000000e-002;}
	.st18{opacity:0.34;fill:#FFFFFF;enable-background:new    ;}
	.st19{fill:#93AA9D;}
	.st20{fill:#22252D;}
	.st21{fill:#F4F4F2;}
	.st22{fill:#DFE5E5;}
	.st23{opacity:0.12;enable-background:new    ;}
	.st24{fill:#CDCED0;}
	.st25{fill:#202020;}
</style>
<g id="Background">
</g>
<g id="Shadow">
	<g>
		<path class="st0" d="M522,644.1c-28.2,0.1-56.4,0.8-84.5,3.9c-10.6,1.2-21,3.8-31.6,4.8c-21.2,2.1-42.1,6-63.4,7.8
			c-17.2,1.4-34.4,2.3-51.5,4.1c-16,1.7-33.8,1.3-49.7-1.5c-11.8-2.1-23.6-3.3-35.2-6.7c-13-3.8-27.1-6.5-40.6-6.4
			c-19.3,0.1-38,0.2-56.5,6.8c-6.5,2.3-14.4,6.2-19.3,11.1c-11.3,11.3-12.8,39.4-1.5,51.1c18.9,19.7,59.3,27.4,85.8,27.8
			c29.1,0.4,57.3-1.8,86.4-3c27-1.2,54-2.9,81.1-2.8c55.3,0.1,110.7,0,165.9-3.7c51.9-3.5,103.9-2.3,155.9-2.3
			c53.3,0,106.3,0.4,159.2,7.5c23.1,3.1,46.6,4.2,69.8,6.3c20.8,1.9,40.7,0,61.4-1.8c17.4-1.5,34.6-6,50.4-13.5
			c12.5-6,34.7-24.5,38.6-38.8c10.7-39.9-151.3-39-176.2-38.9c-27.8,0.1-55.9,1-83.7,0c-11.7-0.4-23.2-2.7-34.6-5.2
			c-11.4-2.5-22.8-1.9-34.4-2.9c-48.1-4.4-96.3-3.7-144.5-3.7C553.4,644.2,537.7,644.1,522,644.1z"/>
	</g>
</g>
<g id="Object">
	<g>
		<g>
			<g>
				<polygon class="st1" points="220,327.6 208.8,318.6 212.5,313.7 221.6,318.2 222.3,315.1 230.9,324 227.7,329.6 				"/>
			</g>
			<g>
				<polygon class="st2" points="338.3,321.1 288.1,346.8 229,320 223.3,331.4 285.9,378.2 354.5,360.2 				"/>
			</g>
		</g>
		<g>
			<g>
				<path d="M565.9,87c0-2.1,0-4.1-0.1-6.2l2.8-5.8c0.7-0.8,2.2-0.8,2.9,0l2.5,5.7l0.1,6.2c2.3,0,6,1.7,6.1,3.8c0,2.2-1.8,3.9-4.1,4
					h-1.9l2.5,208.6c0.1,11.8,6.6,21.5,15.8,21.2c7.1-0.2,13.2-6.2,14.1-15.8c0.2-2.1,2-3.8,4.3-3.8h0.2c2.6,0,4.7,2.1,4.4,4.6
					c-1.6,13.7-12.7,23.6-23.2,23.7c-8.3,0.1-15.1-3.6-19.1-10.2c-5-8.3-4.8-17.4-4.9-26.5c-0.1-8.6-0.2-17.3-0.3-25.9
					c-0.1-12.1-0.3-24.2-0.4-36.2c-0.2-13.8-0.3-27.5-0.5-41.3c-0.2-13.7-0.3-27.5-0.5-41.2c-0.1-12-0.3-23.9-0.4-35.9
					c-0.1-7-0.2-14-0.3-21h-1.3c-2.3,0-4.2-1.7-4.2-3.9C560.5,88.8,563.6,87,565.9,87z"/>
				<polygon class="st3" points="567.3,203.9 575.5,195.3 575.4,181.4 567,181.5 				"/>
			</g>
			<g>
				<path class="st4" d="M518.1,203.2c-0.3,0.1-0.6,0.3-0.8,0.4c-0.4-0.1-0.8-0.3-1.2-0.4h1.3H518.1z"/>
				<path class="st5" d="M625,200.9l-1.4-7.7c-4.8-26.6-15.5-51.7-31.6-73.7l-20.3-27.8c48.6,1.4,90.5,29,111.3,68.9
					c6.4,12.2,10.8,25.5,12.8,39.6c-10.5-2.9-22.7-4.6-35.7-4.4C647.5,196,635.5,197.8,625,200.9z"/>
				<path class="st5" d="M520.6,186.7l-3.2,16.5h-1.3c-11.1-3.5-24.3-5.4-38.5-5.2c-14.1,0.2-27.3,2.4-38.5,6.1
					c2-18,7.9-34.9,16.9-49.9c22.2-36.9,63.1-61.9,110.2-62.5c1.4,0,2.8,0,4.1,0l-15.7,22.9C535.5,138.3,526.8,162.1,520.6,186.7z"
					/>
				<path class="st6" d="M623.7,193.2l1.4,7.7c-0.1,0-0.2,0.1-0.3,0.1c-13.5-5.7-32-8.8-52.3-8.6c-21.4,0.2-40.7,4.2-54.2,10.7h-0.8
					l3.2-16.5c6.2-24.6,14.9-48.4,34.1-72l15.7-22.9c0.5,0,1,0,1.4,0l20.3,27.8C608.1,141.5,618.9,166.7,623.7,193.2z"/>
			</g>
		</g>
		<g>
			<g>
				<g>
					<g>
						<polygon class="st1" points="612.5,335.6 606.4,329.9 606.3,322.7 604.8,322 603.7,323.8 601.9,317.9 597.6,315.1 
							591.2,317.5 587.5,323.4 590.6,329.4 597.4,333.8 605.4,341.8 						"/>
					</g>
					<polygon points="611.9,328.8 601,341.5 630.3,385.1 641.2,388.6 687.6,352.2 675.2,327.4 640.6,356.2 					"/>
				</g>
				<g>
					<g>
						<polygon class="st7" points="759.3,671.4 760.9,678.7 748,689.1 739.2,683.3 744.8,674.5 757.6,664.1 						"/>
						<polygon class="st8" points="714.3,447.1 728.7,479.5 730,570.7 759.5,668.9 745.8,674.8 685.6,560.9 678.8,524.8 
							676.1,448.8 						"/>
					</g>
					<g>
						<polygon class="st8" points="644.9,454.3 643.8,550 662.1,673.3 676.3,673.3 685.2,559.5 704.5,445.7 						"/>
						<polygon class="st7" points="676.2,671.6 676.2,679.1 660.9,686.6 653.3,679.1 660.9,671.6 						"/>
					</g>
				</g>
				<path d="M672.7,324.9l37.5-1.4c0,0,22.4,19.3,34,69.5c11.8,51.1-2.2,124.7-2.2,124.7s-100.7-13.2-117.2-15.2L650,401.6
					L672.7,324.9z"/>
				<g>
					<path class="st1" d="M686.2,328.6c4.4-0.4,8.8-0.8,13.1-1.3c0-3.4-0.2-6.9-0.7-10.3c3.7-1.3,7.9-3.1,8.5-6.9
						c0.2-1.2,0-2.4-0.2-3.6c-0.9-4.9-1.7-9.7-2.6-14.6c-0.3-1.7-0.6-3.4-1.5-4.9c-1.6-2.5-4.8-3.6-7.8-4.2
						c-7.7-1.3-16.1,0.3-22,5.2c-1.6,1.3-3,2.9-3.7,4.8c-1.1,3-0.3,6.2,0.5,9.3c0.7,2.8,1.5,5.6,2.2,8.4c0.9,3.2,2.1,6.9,5.3,8.1
						c1.7,0.6,3.7,0.5,5.2,1.4C685.1,321.9,684.8,325.8,686.2,328.6z"/>
					<path d="M643.4,279.9c-0.1-3.3,0.4-6.7,1.1-9.8c1.2-5.2,7.5-7.6,12.9-8c11.8-0.8,23.1-6,34.6-2c6.6,2.3,15.4,2.9,21.3,6.1
						c2.5,1.4,4.5,3.5,6,5.8c5.3,8.1,5.4,19.3,0,27.4c-1.2,1.8-2.6,3.5-4.1,5.1c-3.1,3.3-6.8,7.4-11.1,8.6
						c-0.1-3.7,3.4-15.5,0.5-18.6c-4.6-4.9-15.2-3.2-20.9-2c-6.3,1.3-11.9,5.7-18.2,6.6c-4.5,0.7-10.2-1.5-14-3.8
						C645.5,291.9,643.5,286,643.4,279.9z"/>
				</g>
				<path class="st9" d="M683.1,329.4l-39.4,154.8l-3.2,20.3l49.1,6.3c0,0-1.9-74.1-1.3-84c0.6-9.9,7.9-31.3,9.1-54.3
					c0.6-13.3,5-37.2,1.9-45L683.1,329.4z"/>
			</g>
		</g>
		<g>
			<polygon class="st10" points="428.8,378.6 439.3,371.6 436.5,367 428.1,370.3 427.8,367.5 419.5,374.6 421.9,379.8 			"/>
			<path class="st2" d="M421.5,371.3l4.1,10.4c0.6,1.7-39.4,23.8-43,25.4c-7.8,3.5-22,11.7-22,11.7c-10.9,0.1-31.4-5.3-38.3-8.2
				c-2.8-1.2-4.7-7.2-6.4-9.5c-2.1-3,0.6-8.4,2.4-10.8c3.7-5.1,9.5-8.7,15.7-9.9c2.2-0.4,4.6-0.6,6.8,0c2.3,0.6,5.2-9.6,7.1-8.3
				c3.4,2.4,5.3,18,9.4,19.3C362.5,393.2,420.3,368.8,421.5,371.3z"/>
		</g>
		<path class="st2" d="M339.3,323.5c-0.2,0-0.5,0-0.7,0c-11.2,0.5-24.8,15-32.6,23.5c-20.3,22-34.5,47.2-45.1,75.4
			c-5.7,15.2-10.8,30.6-15.5,46.1c-1.3,4.3-10.5,43.5-12.7,43.7c22.8-2.9,45.8-5.1,68.5-3.5c22.7,1.5,45.3,7,64.8,18.8
			c10-50.3,17.4-102.3,19.8-153.3c0.3-6.1,1.2-12.4,0.7-18.4c-0.7-7-4.2-10.1-8.2-15.4c-1.4-1.8-2.7-3.6-4.4-5.1
			C365.1,327.3,351.1,323.2,339.3,323.5z"/>
		<g>
			<g>
				<polygon class="st10" points="259.7,494.3 283.4,588.9 284,658.5 295.5,661 300,596.2 311.3,477.5 				"/>
			</g>
			<polygon class="st7" points="295.7,662.9 297.5,670 295.9,683.9 286.5,683.9 283,663.8 284.1,660.5 			"/>
		</g>
		<g>
			<polygon class="st10" points="350.4,483.9 352.5,565.6 341.3,680.9 330,681.7 325.9,576 302.7,480.1 			"/>
			<polygon class="st7" points="341,679 356.3,687 355.1,694 328,690.7 329.3,680.6 			"/>
		</g>
		<polygon class="st7" points="353.7,494.4 361.4,588.8 353.6,653.5 322.7,651.8 317.2,578.2 303.9,498 306,485.5 350.4,486.2 		"/>
		<polygon points="307,581.9 303.3,649.6 276.5,648.3 277.1,584.1 260.2,503.5 264,480.9 309.1,483.7 		"/>
		<path class="st9" d="M359.3,502.2c-27.5-4.7-72-15.9-99.5-20.6c14.4-46.9,37.3-98.9,64-140.1c4.8-7.5,10.9-15.3,19.6-17
			c9.3-1.9,25.6,4.1,27.4,14.3c2.6,14.9-2.8,35.5-4.5,50.5C362.3,423.5,365.9,468.5,359.3,502.2z"/>
		<g>
			<path class="st1" d="M354.5,291.7c10.3-17.7,33.3-6.2,34.7,11.5c1,11.6-10.5,24.4-22.5,25.3c-0.2,2.8-0.6,5.6-1.1,8.3
				c-3-0.8-6-1.6-9-2.4c-0.9-0.2-2-0.6-2.3-1.5c-0.2-0.5,0-1.1,0.1-1.7c0.5-1.9,1.1-3.7,1.6-5.6c-0.2-0.1-0.4-0.3-0.6-0.4
				c-5-3.7-7.2-10.2-6.9-16.3C348.9,302.8,351.4,297,354.5,291.7z"/>
			<g>
				<g>
					<path d="M355.2,297.6c-5,4.7-5.5,12.2-5.8,18.7c-0.3,5.7-1.2,9.2-7.4,7.5c-3.5-0.9-9.7-2.5-11.2-6.2c-1.1-2.8,3-7.7,5.2-9.4
						c1.7-1.3,4.2-1.1,5.8-2.4c0.7-0.5,1.1-1.3,1.5-2c1.7-3.1,2.9-6.4,3.6-9.8c0.5-2.3,0.7-4.7,1.6-6.9c1.4-3.2,5.4-5.5,8-7.7
						c4.9-4.1,16-7.1,20,0.1c0.9,1.6,0.9,3.6,0.8,5.5c-0.1,1.1-0.2,2.3-0.7,3.3c-2.1,4-6.1,2.7-9.7,3.3
						C362.6,292.4,358.4,294.6,355.2,297.6z"/>
					<path d="M384,313.7c-1.3,2.9-4.4,5.3-4.1,8.4c0.1,1.4,1,2.6,1.5,3.9c1.6,3.6,1,7.9-1.4,11c5.8,2.7,11.7,5.5,17.5,8.2
						c0.9,0.4,1.8,0.8,2.8,0.8c2.1-0.1,3.3-2.3,4.2-4.1c1.7-3.7,3.5-7.6,2.7-11.6c-0.4-1.8-1.2-3.5-1.6-5.4
						c-1.7-8.8,9.1-17.2,5.8-25.6c-1.5-3.7-5.3-6-7.9-9c-4.6-5.4-5.2-13.3-10.1-18.3c-9.3-9.6-27.4-1.7-26,11.6
						C368.5,294.4,389.1,301.9,384,313.7z"/>
				</g>
			</g>
		</g>
		<path class="st2" d="M337.8,326.3c0,0-47.6,112.5-37.1,141.2s15.4,39.8,15.4,39.8l-72.8,3C243.3,510.3,289.8,346,337.8,326.3z"/>
		<g>
			<g>
				<path class="st11" d="M780.1,524l-32.3-33.6h-1c-1.7-4-3.4-8-5.2-12.1c-9.1-21.2-18.2-42.5-27.3-63.7
					c-8-18.7-14.4-50.3-39.4-51.7L437,349.6c-26.4-1.5-51.4,12.9-64.2,36.9l-44.4,83.7l-4-0.2l-81.1,20.2
					c-28.7,11.9-48.1,38.8-49.9,69.4l-2.7,45.9l603.9,33.8l3.8-65.4C799.7,555.5,793,537.4,780.1,524z"/>
				<path class="st12" d="M550.1,472.7l158.7,8.9l-31-89.2c-1.5-4.4-5.5-7.5-10.1-7.7l-112.2-6.3L550.1,472.7z"/>
				<path class="st12" d="M528.4,376.8l-90.9-5.1c-19.3-1.1-37.5,9.4-46.8,26.9l-33.6,63.2l165.8,9.3L528.4,376.8z"/>
				<g class="st13">
					<path class="st14" d="M681,413.7c2,1.2,4.1,2.5,6.1,3.7l-8.5-24.4c-1.5-4.4-5.5-7.5-10.1-7.7l-38.9-2.2
						C646.7,393.4,663.9,403.5,681,413.7z"/>
					<path class="st14" d="M682.8,434.7c-28.2-17.1-57.8-36.4-85.7-54l-36.5-1.5c23.8,22.4,54.2,42.9,81.2,61.3
						c16.2,11.1,32.7,21.6,49.8,31.4c5.6,3.2,11.4,6.1,17.3,9.1l-13.4-38.6C691.2,439.8,687,437.2,682.8,434.7z"/>
					<path class="st14" d="M496.6,431.6c-11.8-8.5-24.1-16.3-36.4-24c-12.5-7.7-25.2-15.5-38.4-22c-4.4-2.2-8.8-4.2-13.2-6.2
						c-7.3,4.6-13.4,11.2-17.7,19.2l-0.3,0.6c13.2,10.2,26.4,20.2,39.5,30.5c19.3,15.2,41,27,62,39.6l31,1.7l1-17.1
						C514.8,446.6,506.2,438.5,496.6,431.6z"/>
				</g>
				<g>
					<path class="st15" d="M419.6,618.2c0.7-2.6,1.1-5.4,1.3-8.1c1.6-27.4-23.8-51.2-56.8-53c-12.9-0.7-25,2-35.1,7.2
						c20.1,5.3,37.4,16.3,51.3,30.2c7.1,7.1,12.4,14.5,16.5,22.3L419.6,618.2z"/>
				</g>
				<g>
					<path class="st15" d="M732.3,635.8c0.7-2.6,1.1-5.4,1.3-8.1c1.6-27.4-23.2-51.2-55.4-53c-12.6-0.7-24.4,2-34.3,7.3
						c19.6,5.3,36.5,16.3,50,30.1c6.9,7.1,12.1,14.5,16.1,22.3L732.3,635.8z"/>
				</g>
				<g>
					<path d="M401.7,611.5c-1.7,28.8-26.8,50.8-56.1,49.2c-29.3-1.6-51.7-26.3-50.1-55.1c1.7-28.8,26.8-50.8,56.1-49.2
						C381,558,403.4,582.7,401.7,611.5z"/>
					<g>
						<g>
							<path class="st14" d="M336.2,635.5c-15.2-6.8-21.9-24.3-15-39.3c6.9-14.9,24.8-21.5,40-14.7s21.9,24.3,15,39.3
								C369.2,635.7,351.3,642.3,336.2,635.5z"/>
						</g>
						<path class="st15" d="M352.7,629.4c5.8-0.1,11.7-1.8,16-5.6c-2.1,5.1-6.8,9-12.3,10.1c-1.8,0.4-3.7,0.5-5.6,0.5
							c-2,0-4,0-6-0.4c-5.3-1.1-10-4.6-12.3-9.4c0.8,1.5,6.6,2.9,8.1,3.3C344.6,628.8,348.6,629.5,352.7,629.4z"/>
					</g>
				</g>
				<g>
					<path d="M715.5,629.1c-1.7,28.8-26.8,50.8-56.1,49.2s-51.7-26.3-50.1-55.1c1.7-28.8,26.8-50.8,56.1-49.2
						S717.1,600.3,715.5,629.1z"/>
					<g>
						<g>
							<path class="st14" d="M649.9,653.1c-15.2-6.8-21.9-24.3-15-39.3c6.9-14.9,24.8-21.5,40-14.7s21.9,24.3,15,39.3
								C683,653.2,665.1,659.8,649.9,653.1z"/>
						</g>
						<path class="st15" d="M666.5,647c5.8-0.1,11.7-1.8,16-5.6c-2.1,5.1-6.8,9-12.3,10.1c-1.8,0.4-3.7,0.5-5.6,0.5c-2,0-4,0-6-0.4
							c-5.3-1.1-10-4.6-12.3-9.4c0.8,1.5,6.6,2.9,8.1,3.3C658.3,646.4,662.4,647.1,666.5,647z"/>
					</g>
				</g>
			</g>
			<path class="st16" d="M500.9,508.9l-16.4-0.9c-3.4-0.2-6-3.1-5.9-6.4l0,0c0.2-3.4,3.1-5.9,6.6-5.7l16.4,0.9
				c3.4,0.2,6,3.1,5.9,6.4l0,0C507.3,506.5,504.3,509.1,500.9,508.9z"/>
		</g>
		<g>
			<polygon class="st1" points="680.3,425.4 673.4,431.5 665.3,431 664.3,432.7 666.3,433.9 659.5,435.4 656,439.8 658.1,446.9 
				664.5,451.4 671.5,448.6 677,441.6 686.7,433.6 			"/>
			<path d="M673.7,429.1c11.1-8.5,22.1-16.9,33.2-25.4c3-2.3,6.4-4,9.3-6.3c4.3-3.4,5.5-4.4,4-9.2c-4.2-14.1-13.2-26.7-17.3-40.7
				c4.7-2.7,8.9-6,13.9-8.2c8.2-3.6,10.1,2.2,13.4,8.2c4,7,7.7,14.2,11.2,21.5c2.9,6,17.2,31.3,9.1,37.4c-5.8,4.3-69.7,37.3-69,38.6
				C681.3,444.4,673.7,429.1,673.7,429.1z"/>
		</g>
		<g>
			<g>
				<path d="M285.8,215.1c-62.9,30.8-104.6,8.9-110.3,5.6c0,0-0.2-0.4-0.3-0.2c-0.2-0.1-0.2,0.3-0.2,0.3c-3.4,5.6-29.3,44.4-99.6,47
					c0,0,20.4,120.1,71.6,158.3c54.8,40.8,93.8,47.5,93.9,47.4c0.2,0.1,31.6-23.9,59.3-85.7C326.2,329.9,285.8,215.1,285.8,215.1z"
					/>
				<path class="st5" d="M279.2,229.6c-57.2,27.7-94.9,8.4-100,5.4c0,0-0.2-0.4-0.3-0.2c-0.2-0.1-0.2,0.3-0.2,0.3
					c-3.1,5-26.7,39.7-90.4,42.3c0,0,17.9,106.9,64.3,140.8c49.5,36.2,85.5,44.8,85.7,44.6c0.2,0.1,28-24.3,53.4-79.5
					C315.4,331.8,279.2,229.6,279.2,229.6z"/>
				<g class="st17">
					<path d="M181.3,245.5c0,0,0-0.4,0.2-0.3c0.1-0.2,0.3,0.2,0.3,0.2c5.3,3,43.4,22.6,101.3-4c-3.1-10.6-5.4-17.1-5.4-17.1
						c-57.2,27.7-94.9,8.4-100,5.4c0,0-0.2-0.4-0.3-0.2c-0.2-0.1-0.2,0.3-0.2,0.3c-3.1,5-26.7,39.7-90.4,42.3c0,0,1.1,6.8,3.6,17.6
						C154.3,285.7,178.1,250.7,181.3,245.5z"/>
				</g>
			</g>
			<path class="st18" d="M268.8,263.2c-43.1,21.1-77.4,6.4-81.4,4.1c0,0-0.1-0.3-0.2-0.1c-0.2-0.1-0.1,0.2-0.1,0.2
				c-2.3,3.9-25,32.8-73.1,34.5c0,0,18.8,80,54,106.2c37.6,28,64.3,32.6,64.4,32.5c0.1,0.1,21.6-16.4,40.7-58.8
				C290.8,342.2,268.8,263.2,268.8,263.2z"/>
		</g>
		<g>
			<polygon class="st1" points="861.4,349.6 855.3,346.3 853.7,340.6 852.2,340.3 851.8,342 849,337.6 845,336.2 840.3,339.5 
				838.7,345 842.5,349.2 848.9,351.3 857.1,356.1 			"/>
			<polygon class="st19" points="858,342.9 893.9,367.5 930.7,328.8 935.1,372.7 899.2,395.9 851.4,354.5 			"/>
		</g>
		<g>
			<g>
				<polygon class="st20" points="987.5,664.4 988.1,670.3 977.2,677.7 970.7,672.5 975.9,665.9 986.9,658.5 				"/>
				<polygon class="st1" points="987.3,483.1 989.1,501.2 972.6,563 987.9,662.4 976.7,666.2 947,569.2 942.3,540.9 942.5,481.2 
									"/>
			</g>
			<g>
				<polygon class="st1" points="900.7,503.2 924.4,669.8 935.1,669.8 937.1,563 956.6,488.1 				"/>
				<polygon class="st20" points="935.1,668.5 935.1,674.5 923.4,680.4 917.6,674.5 923.4,668.5 				"/>
			</g>
			<path class="st6" d="M927.1,332.2c0.9-1.4,2-2.5,3.6-3.4c10.7-5.9,28.4-0.7,40-0.7c3.4,35.4,12.9,69.2,19,103.9
				c6.5,36.9,13.8,73.7,22,110.3c0.5,2.1-32.3,1-35.4,1.1c-31.5,0.5-72.7,0.4-103.2-8.9c19.4-51.1,26.5-106.1,41.8-158.5
				c2.7-9.2,5.9-18.3,8.3-27.5C924.6,343.1,924.4,336.6,927.1,332.2z"/>
			<path d="M941.4,280c-8,2.1-14.3,9.4-15.1,17.4c-4.4-4-6.6-10.1-5.8-15.9s4.6-11.1,9.9-13.8c4.9,2.6,8.8,7.1,10.4,12.4L941.4,280z
				"/>
			<path class="st1" d="M925.2,290.5c4.1-21.3,31.3-17.7,39.1-0.4c4.4,9.8-0.2,23.7-9.1,30.6c-0.2,1.9-0.4,7.1-1.9,8.4
				c-1.6,1.4-6.6,0.1-8.6-0.4c-0.5-0.1-1.1-0.3-1.5-0.7c-0.5-0.5-0.6-1.8-0.6-3.2c-1.4-0.1-2.9-0.4-4.4-0.9c-6.3-2-10.9-7.8-12.8-14
				C923.5,303.6,924,296.9,925.2,290.5z"/>
			<path d="M965.4,375.2c-0.3,0-0.5,0-0.6-0.1c-4.8-0.8-12.5-2.3-14.7-7.3c-2.3-5.1,1.8-14.3,2.4-19.6c1-8,1.4-16.1,1.7-24.2
				c0.4-7.3-2.3-14.4-6.2-20.6s-9-11.6-13.9-17c-2.1-2.2-4.2-4.6-4.9-7.6c-0.7-3.3,0.6-6.7,2.8-9.3c3.4-3.9,7.4-5.9,12.5-6
				c18-0.4,31.5,10,36.6,27.2c7.3,24.7-1.8,48.2-0.5,72.8c0.2,4.2,1.6,8.3,4,11.8C984.2,374.4,969.3,375.4,965.4,375.2z"/>
		</g>
		<g>
			<polygon class="st1" points="953.4,408.1 946.2,410.4 940.2,407.4 938.9,408.3 940,409.9 934.3,408.7 930.2,410.9 929.3,417 
				932.6,422.4 938.8,422.6 945.4,419.2 955.4,416.4 			"/>
			<path class="st6" d="M972.5,400.5c3-2,5.1-4.9,5.4-9.1c0.3-3.9-0.7-7.8-1.4-11.6c-2.2-12.2-1.9-24.8,0.8-36.9
				c2.7-12,17,3.1,18.8,8.5c2,6,1.4,12.6,1.9,18.8c0.6,8.4,1,16.7,0.9,25.1c0,5.3,1.3,17.8-4.4,20.9c-1.5,0.8-3.3,1.1-5,1.4
				c-2.7,0.4-35.2,4.4-35.7,2.9l-4.5-13.9C956.2,405.2,966.3,404.6,972.5,400.5z"/>
		</g>
		<g>
			<g>
				<polygon points="906,543.3 735.8,517.6 770.7,294.8 941,320.5 				"/>
				<polygon class="st3" points="750,510 752.5,510.3 902.2,537.6 931.3,326.3 924,327.2 				"/>
				<polygon class="st21" points="898.9,532.4 745.8,509.3 778.2,303.1 931.3,326.3 				"/>
				<g>
					<g>
						<path class="st22" d="M877.4,298.1l-1-0.2l0.1-0.7c1-6.4-4.3-12.6-11.8-13.7l-9.9-1.5c-7.5-1.1-14.4,3.2-15.5,9.6l-0.1,0.7
							l-1-0.2c-7.5-1.1-14.4,3.2-15.5,9.6l-2,13l66.5,10l2-13C890.3,305.3,885,299.2,877.4,298.1z M866.5,296.7L849,294
							c-1.8-0.3-3-1.9-2.8-3.7c0.3-1.8,2-3,3.8-2.7l17.5,2.6c1.8,0.3,3,1.9,2.8,3.7C870,295.7,868.3,297,866.5,296.7z"/>
					</g>
					<polygon class="st23" points="887.2,324.8 820.7,314.7 821.7,308.6 888.2,318.6 					"/>
				</g>
				<g>
					<polygon class="st24" points="900.9,401.9 785.9,384.5 786.3,381.5 901.4,398.9 					"/>
					<polygon class="st24" points="897.4,424.3 782.3,406.9 782.8,403.9 897.9,421.3 					"/>
					<polygon class="st24" points="893.9,446.7 778.8,429.3 779.3,426.3 894.4,443.6 					"/>
					<polygon class="st24" points="890.4,469 775.3,451.7 775.8,448.6 890.8,466 					"/>
				</g>
				<polygon class="st24" points="810.9,500.4 768.6,494 768.4,495.1 810.7,501.5 				"/>
				<path class="st24" d="M873.3,490.3c-1.9-1.1-4.2-1.2-6.3-0.5c-0.3-0.2-0.5-0.4-0.8-0.5c-2.9-1.6-6.6-1.1-9,1s-3.2,5.6-2,8.5
					c1.2,3,4.3,4.9,7.5,4.8c0.8,0,1.5-0.2,2.2-0.4c1.4,1,3.1,1.5,4.9,1.5c3.7-0.1,6.8-2.9,7.4-6.5
					C877.7,495,876.2,491.9,873.3,490.3z M863.7,502.2c-2.7,0.5-5.4-0.7-6.8-2.9c-1.4-2.3-1.2-5.3,0.5-7.4s4.7-2.9,7.3-1.9
					c0.3,0.1,0.7,0.3,1,0.5c-0.5,0.3-1,0.6-1.4,1c-2.4,2.1-3.2,5.6-2,8.5c0.4,0.9,0.9,1.7,1.5,2.3
					C863.8,502.2,863.8,502.2,863.7,502.2z M868.9,496.9c-0.4,2.1-1.8,4-3.7,4.8c-0.5-0.4-0.9-0.9-1.2-1.4c-1.4-2.3-1.2-5.3,0.5-7.4
					c0.6-0.8,1.4-1.3,2.3-1.7C868.4,492.6,869.2,494.7,868.9,496.9z M870.8,503.3c-1.6,0.3-3.1,0-4.5-0.7c2-1.1,3.4-3.1,3.8-5.5
					c0.3-2.3-0.4-4.7-2-6.3c1.2-0.3,2.4-0.2,3.6,0.2c2.9,1.1,4.6,4,4.2,7C875.5,500.6,873.5,502.8,870.8,503.3z"/>
			</g>
			<g>
				<path class="st25" d="M795.6,329.3l1.9,0.3l-2.4,15.3l-1.9-0.3L795.6,329.3z"/>
				<path class="st25" d="M811.5,331.7l1.9,0.3l-2.4,15.3l-2-0.3l-5.5-13.3l-1.9,12.2l-1.9-0.3l2.4-15.3l2,0.3l5.5,13.3L811.5,331.7
					z"/>
				<path class="st25" d="M824.9,342.5c0.5,0.7,0.7,1.7,0.5,2.9c-0.2,1.2-0.8,2.2-1.8,2.9c-1,0.7-2.4,0.9-4.1,0.6
					c-1.7-0.3-2.9-0.8-3.5-1.6c-0.7-0.8-1-1.9-1-3.2h1.6c0,1.9,1,3,3,3.3c2.3,0.4,3.6-0.4,3.9-2.2c0.1-0.8,0-1.4-0.4-1.8
					s-1-0.9-2-1.3l-1.3-0.6c-1.4-0.6-2.4-1.3-2.9-2s-0.7-1.7-0.5-2.9c0.2-1.2,0.8-2.2,1.8-2.9c1-0.7,2.3-0.9,3.9-0.7
					c1.6,0.2,2.8,0.8,3.4,1.6c0.6,0.8,0.9,1.9,0.9,3.2h-1.6c0-1.9-0.9-3-2.8-3.3c-2.2-0.3-3.5,0.4-3.7,2.2c-0.1,0.8,0,1.4,0.3,1.8
					s0.9,0.9,1.8,1.3l1.4,0.6C823.4,341.1,824.4,341.8,824.9,342.5z"/>
				<path class="st25" d="M839.4,335.9l1.9,0.3l-1.6,10.2c-0.1,0.9-0.4,1.7-0.7,2.4c-0.3,0.6-0.7,1.1-1.1,1.4
					c-0.4,0.3-0.9,0.5-1.4,0.7c-0.6,0.1-1.1,0.2-1.5,0.2c-0.5,0-1-0.1-1.6-0.2s-1.1-0.2-1.6-0.3c-0.4-0.1-0.9-0.3-1.4-0.6
					c-0.5-0.3-0.9-0.7-1.1-1.1c-0.3-0.4-0.5-1-0.6-1.7s-0.1-1.5,0-2.5l1.6-10.2l1.9,0.3l-1.6,10.2c-0.3,1.6,0,2.8,0.7,3.4
					c0.3,0.3,0.7,0.5,1.1,0.7c0.4,0.1,0.8,0.2,1.3,0.3c0.5,0.1,0.9,0.1,1.3,0.1c0.4,0,0.8-0.1,1.2-0.3c0.9-0.4,1.4-1.4,1.7-3
					L839.4,335.9z"/>
				<path class="st25" d="M845.5,336.8l4.7,0.7c0.9,0.1,1.7,0.4,2.3,0.8s1.1,0.8,1.3,1.3c0.5,1,0.6,2,0.4,3.2
					c-0.3,2.2-1.5,3.5-3.3,3.8c0.3,0.3,0.6,0.8,0.8,1.5l1.5,5.6l-2-0.3l-1.4-5.3c-0.1-0.5-0.4-0.9-0.7-1.2c-0.3-0.2-0.8-0.4-1.4-0.5
					l-1.8-0.3l-1,6.3l-1.9-0.3L845.5,336.8z M846.2,344.6l2.8,0.4c1,0.2,1.8,0,2.4-0.5c0.6-0.5,0.9-1.2,1.1-2c0.1-0.9,0-1.6-0.4-2.3
					c-0.4-0.7-1.1-1.1-2.1-1.2l-2.8-0.4L846.2,344.6z"/>
				<path class="st25" d="M862.4,339.4l2.5,0.4l2.7,16.1l-1.9-0.3l-0.8-4.8l-5.9-0.9l-2.2,4.4l-1.9-0.3L862.4,339.4z M863.4,341.2
					l-3.7,7.2l5,0.8L863.4,341.2z"/>
				<path class="st25" d="M882.1,342.4l1.9,0.3l-2.4,15.3l-2-0.3l-5.5-13.3l-1.9,12.2l-1.9-0.3l2.4-15.3l2,0.3l5.5,13.3L882.1,342.4
					z"/>
				<path class="st25" d="M893.6,345.3c-1.3-0.2-2.4,0-3.1,0.6c-0.7,0.5-1.2,1.5-1.6,2.9c-0.2,0.6-0.3,1.3-0.4,2.2
					c-0.1,0.9-0.2,1.6-0.3,2.3c0,0.6,0,1.2,0.1,1.8c0.1,0.6,0.3,1.1,0.5,1.4c0.5,0.8,1.5,1.3,2.8,1.5c2.2,0.3,3.5-0.6,3.9-2.9
					l1.5,0.3c-0.3,1.5-1,2.7-1.9,3.4c-0.9,0.7-2.2,1-3.8,0.7c-2.3-0.4-3.8-1.3-4.5-2.9c-0.3-0.8-0.5-1.6-0.5-2.6
					c0-0.9,0.1-2.1,0.3-3.4s0.5-2.4,0.8-3.3s0.8-1.7,1.3-2.3c1.1-1.3,2.8-1.7,5.1-1.4c1.6,0.2,2.6,0.8,3.3,1.6
					c0.6,0.8,1,1.9,0.9,3.2h-1.6C896.5,346.7,895.5,345.6,893.6,345.3z"/>
				<path class="st25" d="M902.1,345.4l8.3,1.3l-0.2,1.5l-6.4-1l-0.8,5.3l6,0.9l-0.2,1.5l-6-0.9l-0.9,5.6l6.8,1l-0.2,1.5l-8.7-1.3
					L902.1,345.4z"/>
				<path class="st25" d="M822,368.9l-2.7-0.4l-0.9,5.7l-1.9-0.3l2.4-15.3l4.6,0.7c3.2,0.5,4.6,2.3,4.1,5.5
					C827.1,368,825.2,369.3,822,368.9z M819.6,367l2.6,0.4c2,0.3,3.2-0.7,3.6-2.9c0.3-2.2-0.5-3.5-2.5-3.8l-2.6-0.4L819.6,367z"/>
				<path class="st25" d="M839.8,375.3c-0.6,0.7-1.3,1.2-2.2,1.4c-0.9,0.3-1.9,0.3-3.1,0.1c-1.2-0.2-2.2-0.5-2.9-1
					c-0.8-0.5-1.3-1.2-1.6-2s-0.5-1.7-0.5-2.6s0-1.9,0.2-3s0.4-2,0.6-2.7c0.2-0.7,0.5-1.4,0.9-2.1s0.8-1.2,1.4-1.6
					c1.1-0.9,2.7-1.1,4.5-0.9c2.4,0.4,3.9,1.4,4.6,3.1c0.3,0.8,0.5,1.7,0.5,2.6s0,2-0.2,3.2s-0.4,2.2-0.8,3.1
					C840.8,373.8,840.4,374.6,839.8,375.3z M834.9,375.4c0.7,0.1,1.4,0,2.1-0.2c0.6-0.2,1.1-0.6,1.5-1.2s0.7-1.2,1-1.9
					c0.2-0.7,0.4-1.5,0.6-2.5c0.1-0.9,0.2-1.8,0.2-2.6c0-0.8-0.1-1.5-0.3-2.1c-0.4-1.4-1.5-2.2-3.1-2.4c-1.3-0.2-2.4,0.1-3.2,0.8
					c-1,0.9-1.7,2.6-2.1,5c-0.4,2.4-0.2,4.2,0.4,5.4C832.5,374.6,833.5,375.1,834.9,375.4z"/>
				<path class="st25" d="M844.5,378.1l2.4-15.3l1.9,0.3l-2.2,13.8l5.8,0.9l-0.2,1.5L844.5,378.1z"/>
				<path class="st25" d="M857.2,364.3l1.9,0.3l-2.4,15.3l-1.9-0.3L857.2,364.3z"/>
				<path class="st25" d="M868.7,367.3c-1.3-0.2-2.4,0-3.1,0.6c-0.7,0.5-1.2,1.5-1.6,2.9c-0.2,0.6-0.3,1.3-0.4,2.2
					c-0.1,0.9-0.2,1.6-0.3,2.3c0,0.6,0,1.2,0.1,1.8c0.1,0.6,0.3,1.1,0.5,1.4c0.5,0.8,1.5,1.3,2.8,1.5c2.2,0.3,3.5-0.6,3.9-2.9
					l1.5,0.3c-0.3,1.5-1,2.7-1.9,3.4c-0.9,0.7-2.2,1-3.8,0.7c-2.3-0.4-3.8-1.3-4.5-2.9c-0.3-0.8-0.5-1.6-0.5-2.6
					c0-0.9,0.1-2.1,0.3-3.4s0.5-2.4,0.8-3.3s0.8-1.7,1.3-2.3c1.1-1.3,2.8-1.7,5.1-1.4c1.6,0.2,2.6,0.8,3.3,1.6
					c0.6,0.8,1,1.9,0.9,3.2h-1.6C871.6,368.7,870.7,367.6,868.7,367.3z"/>
				<path class="st25" d="M879.4,383.3l-1.9-0.3l0.8-5.3l-3.2-10.7l1.9,0.3l2.5,8.7l5.1-7.6l1.9,0.3l-6.4,9.2L879.4,383.3z"/>
			</g>
		</g>
	</g>
</g>
</svg>
